<?xml version="1.0" encoding="UTF-8" ?>
<!DOCTYPE svg PUBLIC "-//W3C//DTD SVG 1.1//EN" "http://www.w3.org/Graphics/SVG/1.1/DTD/svg11.dtd">
<svg width="135pt" height="128pt" viewBox="0 0 135 128" version="1.1" xmlns="http://www.w3.org/2000/svg">
<g id="#000000ff">
<path fill="#ffffff" opacity="1.00" d=" M 67.42 0.00 L 67.58 0.00 C 89.98 21.71 112.71 43.08 135.00 64.89 L 135.00 67.12 C 133.79 68.57 131.61 69.59 130.14 67.85 C 109.20 47.91 88.49 27.72 67.46 7.87 C 46.53 27.79 25.79 47.92 4.86 67.83 C 3.46 69.56 1.35 68.47 0.00 67.33 L 0.00 64.94 C 22.25 43.07 45.03 21.72 67.42 0.00 Z" />
<path fill="#ffffff" opacity="1.00" d=" M 87.63 10.81 C 88.55 9.27 90.45 9.58 91.96 9.50 C 98.80 9.53 105.65 9.52 112.49 9.52 C 112.38 17.32 112.73 25.14 112.34 32.93 C 111.61 35.97 106.69 35.20 106.94 32.08 C 106.71 26.42 106.93 20.75 106.85 15.08 C 101.17 15.02 95.48 15.16 89.80 15.04 C 87.68 15.21 86.53 12.43 87.63 10.81 Z" />
<path fill="#ffffff" opacity="1.00" d=" M 16.93 68.90 C 16.73 66.81 18.92 65.50 20.78 66.14 C 22.45 66.74 22.38 68.59 22.43 70.05 C 22.42 87.51 22.37 104.98 22.45 122.44 C 31.83 122.46 41.22 122.43 50.60 122.46 C 50.66 110.20 50.60 97.95 50.63 85.69 C 61.88 85.68 73.12 85.68 84.37 85.69 C 84.40 97.95 84.34 110.20 84.40 122.46 C 93.78 122.44 103.16 122.45 112.55 122.45 C 112.74 105.26 112.38 88.05 112.72 70.87 C 113.09 67.53 118.71 68.56 118.08 71.95 C 118.19 90.63 118.09 109.32 118.13 128.00 L 78.84 128.00 C 78.83 115.75 78.86 103.51 78.82 91.26 C 71.27 91.22 63.73 91.23 56.18 91.26 C 56.14 103.50 56.17 115.75 56.16 128.00 L 16.87 128.00 C 16.92 108.30 16.78 88.60 16.93 68.90 Z" />
</g>
</svg>
