<?xml version="1.0" encoding="UTF-8" ?>
<!DOCTYPE svg PUBLIC "-//W3C//DTD SVG 1.1//EN" "http://www.w3.org/Graphics/SVG/1.1/DTD/svg11.dtd">
<svg width="128pt" height="128pt" viewBox="0 0 128 128" version="1.1" xmlns="http://www.w3.org/2000/svg">
<g id="#000000ff">
<path fill="#ffffff" opacity="1.00" d=" M 120.79 0.00 L 123.25 0.00 C 125.81 0.61 127.49 2.53 128.00 5.08 L 128.00 7.02 C 127.10 13.60 124.04 19.70 120.13 25.00 C 113.22 33.96 104.70 41.46 96.60 49.30 C 98.05 54.16 99.48 59.02 100.96 63.87 C 104.96 62.80 109.14 66.00 109.74 69.89 C 108.59 72.72 106.05 74.90 104.34 77.47 C 108.22 77.42 111.83 79.39 113.48 82.96 C 113.88 86.14 110.61 87.96 108.86 90.13 C 110.26 95.47 112.32 100.63 113.41 106.05 C 113.96 108.08 112.23 109.64 111.07 111.04 C 109.07 113.06 107.04 115.46 104.11 116.03 C 102.13 114.93 101.10 112.83 100.01 110.96 C 95.22 102.16 90.25 93.46 85.44 84.68 C 82.66 79.45 77.83 75.84 73.84 71.61 C 64.83 80.03 55.57 88.15 45.93 95.84 C 46.69 103.90 47.56 111.97 48.16 120.05 C 48.79 123.80 45.49 126.33 42.65 128.00 L 41.33 128.00 C 35.75 121.86 34.34 113.10 29.45 106.44 C 27.11 106.42 24.22 107.59 22.31 105.68 C 20.39 103.79 21.59 100.88 21.57 98.55 C 14.79 93.99 6.76 91.78 0.00 87.20 L 0.00 85.48 C 1.49 82.87 3.60 79.71 7.00 79.83 C 15.38 80.05 23.68 81.70 32.06 81.78 C 34.53 79.68 36.32 76.93 38.41 74.48 C 44.05 67.40 50.32 60.87 56.39 54.16 C 52.17 50.19 48.57 45.36 43.38 42.57 C 34.57 37.75 25.86 32.77 17.04 27.97 C 15.17 26.89 13.12 25.85 11.96 23.94 C 12.52 20.99 14.91 18.93 16.94 16.93 C 18.34 15.78 19.87 14.04 21.89 14.56 C 27.32 15.66 32.51 17.72 37.87 19.14 C 40.03 17.39 41.84 14.18 44.99 14.50 C 48.51 16.15 50.84 19.64 50.15 23.61 C 53.12 22.30 55.14 19.36 58.12 18.26 C 62.00 18.88 65.21 23.05 64.10 27.04 C 68.93 28.50 73.77 29.90 78.56 31.43 C 86.71 23.26 94.25 14.38 103.56 7.47 C 108.68 3.78 114.51 0.95 120.79 0.00 Z" />
</g>
</svg>
