<?xml version="1.0" encoding="UTF-8" ?>
<!DOCTYPE svg PUBLIC "-//W3C//DTD SVG 1.1//EN" "http://www.w3.org/Graphics/SVG/1.1/DTD/svg11.dtd">
<svg width="626pt" height="380pt" viewBox="0 0 626 380" version="1.1" xmlns="http://www.w3.org/2000/svg">
<g id="#010103ff">
<path fill="#ffffff" opacity="1.00" d=" M 19.60 0.00 L 30.43 0.00 C 35.25 1.56 39.63 4.22 43.22 7.78 C 47.44 13.24 50.52 19.95 50.28 26.97 C 50.15 94.93 50.41 162.90 50.15 230.85 C 207.76 230.61 365.38 230.82 523.00 230.75 C 557.33 230.80 591.67 230.64 626.00 230.83 L 626.00 380.00 L 575.68 380.00 C 575.91 346.72 575.56 313.43 575.85 280.15 C 525.57 280.39 475.28 280.18 425.00 280.25 C 325.00 280.25 225.00 280.25 125.00 280.25 C 100.05 280.18 75.09 280.39 50.15 280.15 C 50.34 313.43 50.29 346.72 50.17 380.00 L 0.00 380.00 L 0.00 21.60 C 1.40 17.39 3.27 13.38 5.62 9.62 C 9.27 5.17 14.00 1.61 19.60 0.00 Z" />
<path fill="#ffffff" opacity="1.00" d=" M 125.36 36.29 C 127.99 35.36 130.80 35.67 133.41 36.46 C 138.83 36.95 144.15 38.46 149.07 40.81 C 154.37 42.70 158.18 47.09 162.60 50.41 C 165.19 53.18 167.65 56.13 169.72 59.33 C 172.20 63.28 172.96 67.98 175.03 72.12 C 174.80 76.69 177.30 81.14 175.71 85.64 C 174.37 98.36 167.40 110.50 156.94 117.95 C 153.95 120.50 150.21 121.89 146.94 124.02 C 139.55 126.26 131.80 128.03 124.04 127.08 C 119.47 126.06 114.74 125.50 110.39 123.69 C 106.79 121.29 102.65 119.57 99.64 116.37 C 96.03 112.61 91.77 109.29 89.47 104.49 C 86.22 100.21 85.86 94.72 84.01 89.84 C 83.25 84.60 83.59 79.28 83.83 74.00 C 85.70 67.61 87.52 61.06 91.69 55.72 C 94.69 50.47 99.76 47.07 104.33 43.33 C 110.75 39.53 117.89 36.71 125.36 36.29 Z" />
<path fill="#ffffff" opacity="1.00" d=" M 200.74 82.95 C 200.93 72.55 209.05 63.13 219.17 61.07 C 226.13 59.71 233.04 62.07 240.02 61.90 C 245.36 63.18 250.89 62.31 256.23 63.58 C 268.18 64.03 279.99 66.25 291.92 67.07 C 296.64 68.08 301.53 67.42 306.23 68.59 C 318.24 68.61 330.04 71.29 342.01 71.94 C 351.33 73.30 360.76 73.34 370.08 74.65 C 381.45 74.96 392.64 77.59 404.02 77.93 C 408.75 79.06 413.67 78.37 418.41 79.47 C 433.67 80.12 448.78 82.99 464.04 83.78 C 477.04 85.36 490.13 85.78 503.13 87.65 C 509.39 88.62 515.72 88.81 521.99 89.70 C 527.40 89.36 532.64 91.10 538.05 90.77 C 554.67 92.69 571.30 94.64 587.98 95.85 C 600.01 97.43 611.88 102.80 619.81 112.19 C 622.93 116.89 624.96 122.20 626.00 127.74 L 626.00 192.32 C 452.32 192.14 278.63 192.33 104.94 192.23 C 98.73 191.60 91.87 190.43 87.93 185.06 C 83.55 178.16 83.56 168.84 87.92 161.94 C 92.09 156.31 99.42 155.23 105.95 154.74 C 137.58 154.83 169.22 154.60 200.85 154.85 C 200.61 130.89 200.82 106.92 200.74 82.95 Z" />
</g>
</svg>
