<?xml version="1.0" encoding="UTF-8" ?>
<!DOCTYPE svg PUBLIC "-//W3C//DTD SVG 1.1//EN" "http://www.w3.org/Graphics/SVG/1.1/DTD/svg11.dtd">
<svg width="794pt" height="310pt" viewBox="0 0 794 310" version="1.1" xmlns="http://www.w3.org/2000/svg">
<g id="#010101ff">
<path fill="#ffffff" opacity="1.00" d=" M 304.82 0.00 L 351.41 0.00 C 358.63 -0.23 365.77 1.12 372.99 0.70 C 396.42 1.59 419.79 4.80 442.57 10.36 C 468.82 16.94 494.67 26.10 518.01 39.96 C 523.39 43.10 528.22 47.06 533.23 50.75 C 546.62 60.41 560.00 70.11 573.86 79.10 C 582.30 84.83 590.99 90.20 600.07 94.85 C 607.46 98.60 615.89 98.77 623.92 99.96 C 660.81 105.44 697.73 110.81 734.44 117.46 C 740.57 118.67 746.96 119.43 752.56 122.39 C 758.01 125.37 762.77 129.56 766.43 134.58 C 770.11 139.70 774.37 144.63 776.34 150.73 C 778.29 156.50 779.22 162.53 780.74 168.42 C 781.88 173.02 785.91 176.02 787.91 180.19 C 791.42 187.57 792.60 195.75 794.00 203.72 L 794.00 220.37 C 791.13 233.52 784.41 245.53 775.57 255.59 C 771.88 259.65 768.30 265.54 762.06 265.27 C 755.41 265.25 748.73 265.54 742.10 264.98 C 741.43 258.02 741.55 250.96 742.01 243.99 C 744.31 227.79 740.59 210.48 730.69 197.30 C 722.60 186.15 710.17 178.83 697.12 174.94 C 686.71 171.87 675.86 169.93 664.98 170.21 C 654.38 170.50 643.70 169.55 633.19 171.33 C 617.10 173.62 600.43 178.02 587.87 188.87 C 580.29 195.79 574.13 205.39 574.24 215.97 C 574.18 228.32 574.34 240.67 574.23 253.01 C 573.98 257.22 574.10 261.50 573.21 265.64 C 571.52 266.05 569.79 266.25 568.06 266.30 C 523.03 266.15 477.99 266.35 432.97 266.21 C 420.35 264.92 407.66 265.29 395.00 265.25 C 337.67 265.25 280.34 265.25 223.00 265.25 C 218.05 265.19 213.07 265.58 208.14 264.96 C 206.75 252.62 205.41 240.23 204.66 227.82 C 204.58 217.02 202.99 205.89 197.53 196.40 C 190.49 182.58 176.68 173.35 162.10 169.02 C 142.35 163.03 121.28 163.25 101.01 166.09 C 84.43 168.70 67.64 174.51 55.30 186.30 C 48.97 192.30 43.65 199.54 40.85 207.86 C 38.33 214.62 39.44 221.95 39.26 229.00 C 39.08 239.70 39.58 250.41 39.05 261.10 C 32.71 260.19 26.38 258.88 20.34 256.70 C 15.27 254.77 11.82 250.30 9.12 245.79 C 4.87 238.86 2.67 230.97 0.00 223.35 L 0.00 201.81 C 1.36 193.93 0.55 185.94 0.77 178.00 C 0.98 172.46 -0.27 166.99 0.00 161.44 L 0.00 150.67 C 0.88 146.06 1.80 141.46 2.78 136.87 C 5.24 125.57 9.56 114.79 14.05 104.17 C 16.85 97.41 22.00 92.09 26.19 86.21 C 44.31 61.35 62.83 36.79 80.87 11.88 C 82.08 9.61 84.79 9.92 86.97 9.72 C 107.17 8.65 127.36 7.25 147.56 6.40 C 154.76 5.37 162.05 6.11 169.25 5.23 C 173.16 4.75 177.10 4.74 181.04 4.72 C 187.38 4.79 193.64 3.43 199.99 3.75 C 208.36 4.16 216.63 2.28 224.99 2.76 C 233.03 3.15 240.97 1.42 249.00 1.70 C 255.38 1.86 261.79 1.91 268.14 1.18 C 280.33 -0.18 292.67 1.87 304.82 0.00 Z" />
<path fill="#ffffff" opacity="1.00" d=" M 115.39 181.22 C 121.42 180.11 127.51 181.47 133.45 182.48 C 144.88 184.54 155.18 190.59 163.84 198.16 C 172.90 207.11 179.52 218.66 181.87 231.23 C 187.40 255.57 175.68 282.46 154.67 295.69 C 140.11 305.57 121.28 307.78 104.39 303.70 C 93.99 300.70 84.13 295.24 76.58 287.42 C 66.64 277.85 60.60 264.59 58.86 251.00 C 58.45 242.62 58.15 234.02 60.82 225.94 C 67.67 201.75 90.35 183.29 115.39 181.22 Z" />
<path fill="#ffffff" opacity="1.00" d=" M 622.68 198.65 C 634.81 189.91 650.12 185.63 665.02 186.84 C 679.57 188.20 693.75 194.48 703.93 205.07 C 715.52 216.18 721.67 232.09 722.22 247.99 C 721.85 265.15 714.65 282.30 701.78 293.80 C 691.75 303.01 678.71 308.25 665.31 310.00 L 653.66 310.00 C 647.36 308.81 641.01 307.51 635.06 305.05 C 624.33 300.25 614.38 292.96 608.04 282.90 C 596.94 267.39 594.44 246.52 600.47 228.56 C 604.76 216.74 612.32 205.91 622.68 198.65 Z" />
</g>
</svg>
