<?xml version="1.0" encoding="UTF-8" ?>
<!DOCTYPE svg PUBLIC "-//W3C//DTD SVG 1.1//EN" "http://www.w3.org/Graphics/SVG/1.1/DTD/svg11.dtd">
<svg width="1918pt" height="758pt" viewBox="0 0 1918 758" version="1.1" xmlns="http://www.w3.org/2000/svg">
<path fill="#2f60eb" opacity="1.00" d=" M 0.00 0.00 L 1918.00 0.00 L 1918.00 346.36 C 1908.33 343.49 1899.01 339.57 1889.37 336.62 C 1871.12 330.76 1853.16 324.12 1834.95 318.15 C 1812.71 310.75 1790.64 302.88 1768.35 295.62 C 1750.34 289.82 1732.58 283.32 1714.64 277.36 C 1676.79 264.90 1639.11 251.91 1601.14 239.84 C 1560.14 226.20 1518.83 213.53 1477.67 200.40 C 1439.59 188.99 1401.84 175.35 1362.16 170.61 C 1349.13 169.12 1336.07 167.79 1322.99 166.91 C 1309.72 167.09 1296.41 166.49 1283.16 167.39 C 1233.28 170.38 1183.56 177.23 1134.90 188.74 C 1112.50 194.46 1090.04 200.88 1069.32 211.34 C 1058.58 217.03 1048.35 224.12 1040.31 233.30 C 1036.26 237.68 1036.05 244.35 1038.38 249.61 C 1040.90 255.44 1043.88 261.17 1047.90 266.13 C 1052.75 271.61 1057.17 277.57 1063.13 281.94 C 1077.74 295.87 1094.01 307.88 1110.44 319.56 C 1123.09 328.86 1136.38 337.33 1148.19 347.72 C 1143.48 354.16 1138.02 360.82 1136.94 368.98 C 1136.23 373.64 1140.15 377.00 1143.41 379.60 C 1160.43 392.75 1178.99 403.74 1197.76 414.17 C 1200.71 415.95 1203.99 417.20 1206.76 419.30 C 1207.30 423.13 1206.10 426.94 1205.62 430.72 C 1201.72 431.00 1197.50 430.86 1194.13 433.14 C 1189.17 436.50 1184.62 441.04 1182.83 446.90 C 1179.52 455.76 1179.54 467.24 1186.84 474.16 C 1191.46 477.80 1197.02 480.59 1202.97 481.04 C 1206.84 481.34 1210.88 479.73 1214.62 481.41 C 1219.66 483.39 1225.59 484.00 1230.60 481.58 C 1236.00 478.80 1239.69 473.65 1242.40 468.35 C 1247.49 458.90 1246.00 445.63 1237.34 438.72 C 1232.96 434.66 1226.71 434.14 1221.06 433.63 C 1221.14 431.36 1221.19 429.09 1221.22 426.82 C 1237.33 432.65 1252.13 442.20 1269.07 445.76 C 1273.35 446.73 1277.60 444.57 1280.46 441.48 C 1284.74 437.25 1286.66 431.42 1289.07 426.06 C 1289.74 424.28 1292.02 425.32 1293.35 425.62 C 1329.55 439.64 1366.33 452.14 1402.88 465.21 C 1440.60 478.46 1478.32 491.67 1515.99 505.05 C 1553.02 518.10 1590.01 531.30 1626.62 545.50 C 1632.08 547.68 1637.61 549.73 1642.86 552.42 C 1639.06 563.62 1636.15 575.17 1635.11 586.98 C 1634.44 595.12 1633.50 603.56 1635.57 611.50 C 1641.47 615.97 1648.56 618.54 1655.05 622.02 C 1691.49 640.96 1729.54 656.53 1767.90 671.11 C 1786.01 677.74 1804.02 684.67 1822.36 690.67 C 1830.63 693.25 1838.56 696.82 1846.87 699.32 C 1849.97 700.29 1853.57 700.45 1856.30 698.37 C 1860.79 695.84 1861.96 689.96 1866.62 687.66 C 1871.85 684.47 1878.16 684.90 1884.04 684.95 C 1889.74 684.98 1895.32 686.29 1900.97 686.97 C 1905.70 687.69 1910.53 684.99 1913.03 681.01 C 1914.66 678.49 1916.33 675.98 1918.00 673.47 L 1918.00 758.00 L 1526.85 758.00 C 1527.03 710.99 1526.80 663.97 1526.95 616.95 C 1527.27 609.28 1524.12 601.61 1519.23 595.79 C 1514.69 591.33 1510.45 585.63 1503.87 584.25 C 1501.28 583.52 1498.67 584.26 1496.18 584.94 C 1493.76 582.56 1491.33 580.21 1489.05 577.70 C 1489.23 573.16 1487.51 568.91 1486.16 564.67 C 1485.22 561.38 1482.63 559.01 1480.34 556.64 C 1476.10 552.15 1469.09 549.57 1463.16 551.93 C 1461.23 550.00 1459.30 548.09 1457.40 546.16 C 1453.07 550.56 1448.68 554.91 1444.42 559.37 C 1444.45 569.20 1444.44 579.04 1444.44 588.88 C 1440.24 588.24 1436.00 588.08 1431.77 588.14 C 1431.57 583.90 1429.10 580.35 1425.97 577.69 C 1419.20 584.40 1412.51 591.19 1405.82 597.97 C 1405.82 642.31 1405.82 686.65 1405.82 730.99 C 1405.52 731.35 1404.92 732.08 1404.62 732.44 C 1401.93 730.76 1399.01 729.52 1395.96 728.70 C 1395.88 727.33 1395.77 725.98 1395.61 724.64 L 1395.21 724.47 C 1372.34 716.94 1349.43 709.54 1326.54 702.08 C 1326.69 707.75 1326.78 713.43 1326.85 719.11 C 1326.53 716.52 1325.73 714.04 1325.04 711.56 C 1324.89 708.40 1324.91 705.23 1324.94 702.08 C 1304.51 705.95 1284.03 709.60 1263.63 713.61 C 1263.72 719.11 1263.65 724.61 1263.74 730.11 C 1263.42 730.51 1262.76 731.30 1262.43 731.69 C 1262.45 733.73 1262.46 735.79 1262.67 737.84 C 1261.55 735.26 1261.05 732.50 1260.49 729.78 C 1258.46 729.33 1256.41 728.88 1254.40 728.44 C 1254.34 728.75 1254.20 729.35 1254.14 729.66 C 1253.47 730.88 1252.77 732.09 1252.13 733.33 C 1252.09 731.52 1252.04 729.72 1252.01 727.93 C 1246.31 726.53 1240.62 725.14 1234.92 723.78 C 1234.87 726.55 1234.85 729.33 1234.93 732.11 C 1234.23 730.57 1233.47 729.07 1232.82 727.53 C 1232.76 726.06 1232.73 724.59 1232.71 723.14 C 1230.64 722.68 1228.58 722.22 1226.54 721.73 C 1225.55 724.75 1225.05 727.89 1224.82 731.06 C 1223.90 730.82 1223.00 730.57 1222.13 730.33 C 1222.62 730.39 1223.60 730.50 1224.08 730.55 C 1224.76 727.49 1224.55 724.34 1224.49 721.24 C 1218.77 719.89 1213.09 718.43 1207.40 717.01 C 1207.38 717.84 1207.35 719.51 1207.33 720.34 C 1206.60 719.22 1205.89 718.14 1205.23 717.01 L 1204.94 716.43 C 1203.03 716.00 1201.12 715.57 1199.23 715.16 C 1199.21 715.91 1199.18 717.39 1199.16 718.13 C 1198.60 718.15 1197.49 718.18 1196.93 718.20 C 1196.91 716.96 1196.89 715.73 1196.89 714.51 C 1191.76 713.32 1186.64 712.12 1181.59 710.66 C 1180.85 710.60 1180.13 710.56 1179.44 710.55 C 1178.77 711.82 1178.18 713.13 1177.67 714.47 C 1177.64 712.79 1177.63 711.14 1177.59 709.48 C 1175.60 709.06 1173.61 708.64 1171.65 708.22 C 1171.65 711.21 1171.60 714.21 1171.58 717.21 C 1170.90 714.08 1170.09 710.98 1169.52 707.84 C 1163.75 706.41 1157.97 705.05 1152.21 703.65 C 1152.18 705.46 1152.17 707.27 1152.18 709.10 C 1151.67 708.81 1150.65 708.23 1150.14 707.94 C 1150.11 706.24 1150.09 704.55 1150.08 702.87 C 1148.06 702.43 1146.03 701.99 1144.02 701.56 C 1144.01 702.49 1143.98 704.35 1143.97 705.27 C 1143.45 705.27 1142.41 705.25 1141.89 705.24 C 1141.87 703.84 1141.87 702.45 1141.88 701.07 C 1138.37 700.26 1134.88 699.40 1131.39 698.57 C 1131.36 701.29 1131.31 704.01 1131.25 706.74 C 1130.58 708.27 1129.83 709.76 1129.17 711.30 C 1129.09 706.88 1129.08 702.47 1129.13 698.06 C 1108.23 707.18 1087.34 716.33 1066.45 725.46 C 1066.42 736.30 1066.44 747.15 1066.45 758.00 L 1007.66 758.00 C 1005.03 753.76 1001.01 750.57 996.29 748.95 C 983.52 744.64 970.54 740.96 957.69 736.91 C 957.76 738.17 957.84 739.44 957.93 740.73 C 960.77 741.56 963.60 742.41 966.42 743.32 C 957.78 744.35 948.96 746.89 942.32 752.73 C 942.41 753.23 942.58 754.22 942.67 754.72 C 940.50 755.82 938.36 756.97 936.16 758.00 L 920.84 758.00 C 921.36 751.96 919.74 745.94 920.70 739.93 C 921.26 736.58 920.46 733.26 920.01 729.96 C 919.35 725.93 921.16 722.03 920.85 718.01 C 920.54 714.33 919.40 710.66 920.09 706.95 C 921.45 700.62 919.07 694.23 920.73 687.92 C 921.50 682.27 919.99 676.61 920.73 670.95 C 921.41 665.60 919.69 660.34 919.89 654.99 C 919.71 651.56 920.59 647.64 918.23 644.75 C 916.66 642.28 914.11 640.79 911.59 639.49 C 911.29 639.83 910.69 640.51 910.39 640.85 C 909.89 639.40 909.38 637.78 907.66 637.51 C 891.20 632.37 874.70 627.36 858.23 622.25 C 858.24 622.89 858.26 624.15 858.27 624.79 C 856.84 625.29 855.42 625.81 854.03 626.38 C 853.99 624.54 853.97 622.72 853.96 620.90 C 843.24 626.14 832.64 631.62 821.89 636.82 C 820.35 637.58 818.80 638.33 817.45 639.40 C 816.58 640.86 817.25 643.01 819.09 643.25 C 821.47 642.93 823.52 641.54 825.67 640.54 C 824.28 644.69 822.09 649.05 823.68 653.48 C 821.66 654.50 819.54 655.38 817.70 656.72 C 816.10 658.22 817.66 661.28 819.85 660.69 C 822.31 659.90 824.54 658.55 826.87 657.43 C 827.00 660.83 826.81 664.25 826.12 667.60 C 826.86 667.77 828.34 668.13 829.08 668.31 C 825.43 670.28 821.51 671.76 818.03 674.03 C 815.93 675.26 817.55 679.01 819.96 678.16 C 822.48 677.34 824.78 675.97 827.16 674.81 C 827.12 678.40 826.76 681.99 826.30 685.56 C 826.74 685.77 827.61 686.20 828.05 686.41 C 824.67 688.26 821.01 689.63 817.82 691.79 C 815.98 693.09 817.70 696.40 819.84 695.74 C 822.28 694.95 824.49 693.61 826.81 692.52 C 827.04 696.51 826.10 700.53 826.92 704.50 C 823.78 706.18 820.37 707.44 817.48 709.55 C 816.24 711.19 817.89 714.01 819.98 713.30 C 822.51 712.45 824.81 711.08 827.20 709.92 C 827.05 713.49 826.68 717.05 826.27 720.60 C 826.72 720.81 827.61 721.22 828.06 721.43 C 824.66 723.28 821.01 724.68 817.79 726.83 C 816.02 728.24 817.67 731.55 819.92 730.85 C 822.34 730.07 824.54 728.74 826.83 727.64 C 827.30 731.62 826.16 735.61 826.88 739.58 C 823.78 741.25 820.43 742.50 817.52 744.50 C 816.53 745.95 817.21 747.98 818.94 748.47 C 821.93 748.01 824.49 746.18 827.21 744.94 C 827.01 748.47 826.64 752.00 826.30 755.52 C 826.72 755.78 827.56 756.30 827.99 756.56 C 827.02 757.04 826.05 757.52 825.09 758.00 L 739.65 758.00 C 737.60 754.16 733.95 751.89 730.28 749.84 C 728.74 748.89 727.23 747.84 725.48 747.36 C 714.08 743.97 702.75 740.35 691.35 736.94 C 691.36 738.19 691.38 739.45 691.40 740.72 C 689.84 740.63 688.30 740.60 686.76 740.65 C 687.09 740.45 687.76 740.06 688.10 739.86 C 688.16 738.53 688.20 737.22 688.24 735.91 C 686.32 736.84 684.41 737.78 682.51 738.74 C 680.62 736.56 678.53 734.50 677.07 732.00 C 675.38 728.39 674.64 724.18 671.68 721.30 C 668.08 717.07 662.36 716.11 657.55 713.88 C 656.55 713.71 655.54 713.62 654.55 713.56 C 651.57 708.73 648.65 703.32 643.42 700.59 C 640.80 699.01 637.81 698.29 634.85 697.69 C 634.84 697.16 634.83 696.12 634.83 695.60 C 628.88 695.65 622.94 695.63 617.00 695.63 C 615.57 692.04 614.08 688.42 613.51 684.58 C 612.61 678.38 611.39 672.07 612.74 665.85 C 613.01 659.66 612.69 652.57 608.19 647.81 C 606.59 645.97 604.67 644.46 602.82 642.91 C 598.18 645.79 596.15 651.16 595.11 656.27 C 594.49 645.17 594.78 634.00 593.47 622.95 C 593.75 631.70 593.03 640.44 592.81 649.19 C 592.14 663.72 591.86 678.28 591.00 692.81 C 590.75 693.51 590.24 694.93 589.98 695.64 C 577.53 695.67 565.07 695.57 552.61 695.68 C 552.63 700.71 552.58 705.75 552.73 710.79 C 554.57 710.78 556.42 710.76 558.28 710.76 C 558.28 711.47 558.28 712.90 558.28 713.61 C 550.49 713.66 542.70 713.64 534.92 713.61 C 532.68 702.08 535.90 690.04 532.36 678.69 C 530.50 674.93 527.52 671.88 525.09 668.50 C 527.04 666.61 529.01 664.74 531.29 663.27 C 540.33 657.05 549.09 650.45 557.99 644.04 C 565.36 638.43 573.06 633.22 579.89 626.95 C 587.29 620.70 594.90 614.68 601.82 607.89 C 615.04 596.89 626.66 583.52 633.74 567.73 C 636.14 562.18 638.40 555.87 636.20 549.87 C 633.92 544.01 629.29 539.40 624.49 535.50 C 618.03 530.24 611.74 524.66 604.44 520.54 C 591.28 512.12 576.65 506.41 562.09 500.92 C 526.03 488.15 488.60 479.79 451.03 472.91 C 404.94 464.71 358.35 459.13 311.64 456.50 C 302.40 455.41 293.06 456.53 283.82 455.40 C 274.52 454.15 265.26 456.37 255.95 455.96 C 222.39 458.45 188.72 461.85 155.99 469.98 C 121.29 478.59 87.25 489.59 53.16 500.28 C 35.41 505.74 17.74 511.49 0.00 516.98 L 0.00 0.00 M 929.41 748.43 C 927.27 748.79 926.51 752.12 929.06 752.41 C 937.78 748.68 946.09 744.01 954.64 739.89 C 954.63 738.57 954.63 737.26 954.65 735.96 C 946.15 739.94 937.83 744.31 929.41 748.43 Z" />
<path fill="#2c5add" opacity="1.00" d=" M 1134.90 188.74 C 1183.56 177.23 1233.28 170.38 1283.16 167.39 C 1296.41 166.49 1309.72 167.09 1322.99 166.91 C 1336.07 167.79 1349.13 169.12 1362.16 170.61 C 1401.84 175.35 1439.59 188.99 1477.67 200.40 C 1518.83 213.53 1560.14 226.20 1601.14 239.84 C 1639.11 251.91 1676.79 264.90 1714.64 277.36 C 1732.58 283.32 1750.34 289.82 1768.35 295.62 C 1790.64 302.88 1812.71 310.75 1834.95 318.15 C 1853.16 324.12 1871.12 330.76 1889.37 336.62 C 1899.01 339.57 1908.33 343.49 1918.00 346.36 L 1918.00 442.93 C 1908.32 439.68 1898.81 435.95 1889.08 432.87 C 1879.82 429.93 1870.81 426.29 1861.56 423.35 C 1853.13 420.56 1844.66 417.91 1836.40 414.65 C 1813.61 407.24 1791.11 399.01 1768.33 391.57 C 1709.35 371.26 1650.00 352.00 1590.88 332.11 C 1573.79 326.58 1556.66 321.20 1539.66 315.40 C 1527.66 311.99 1515.97 307.61 1504.03 304.05 C 1458.09 289.28 1411.99 274.98 1365.64 261.53 C 1307.67 247.43 1248.48 238.41 1188.99 234.07 C 1179.64 233.85 1170.33 232.18 1160.96 233.21 C 1170.14 237.15 1180.01 239.12 1189.34 242.66 C 1207.52 248.40 1225.71 254.12 1243.83 260.07 C 1255.66 263.31 1267.06 267.91 1278.90 271.14 C 1299.12 278.12 1319.64 284.13 1339.84 291.18 C 1345.57 293.27 1351.57 294.55 1357.33 296.59 C 1400.57 311.07 1443.86 325.39 1487.10 339.91 C 1545.37 359.80 1603.35 380.57 1661.66 400.38 C 1687.84 409.63 1714.23 418.29 1740.38 427.65 C 1749.03 430.65 1757.85 433.15 1766.36 436.53 C 1816.98 453.86 1867.54 471.37 1918.00 489.17 L 1918.00 673.47 C 1916.33 675.98 1914.66 678.49 1913.03 681.01 C 1910.53 684.99 1905.70 687.69 1900.97 686.97 C 1895.32 686.29 1889.74 684.98 1884.04 684.95 C 1878.16 684.90 1871.85 684.47 1866.62 687.66 C 1861.96 689.96 1860.79 695.84 1856.30 698.37 C 1853.57 700.45 1849.97 700.29 1846.87 699.32 C 1838.56 696.82 1830.63 693.25 1822.36 690.67 C 1804.02 684.67 1786.01 677.74 1767.90 671.11 C 1729.54 656.53 1691.49 640.96 1655.05 622.02 C 1648.56 618.54 1641.47 615.97 1635.57 611.50 C 1633.50 603.56 1634.44 595.12 1635.11 586.98 C 1636.15 575.17 1639.06 563.62 1642.86 552.42 C 1637.61 549.73 1632.08 547.68 1626.62 545.50 C 1590.01 531.30 1553.02 518.10 1515.99 505.05 C 1478.32 491.67 1440.60 478.46 1402.88 465.21 C 1366.33 452.14 1329.55 439.64 1293.35 425.62 C 1292.02 425.32 1289.74 424.28 1289.07 426.06 C 1286.66 431.42 1284.74 437.25 1280.46 441.48 C 1277.60 444.57 1273.35 446.73 1269.07 445.76 C 1252.13 442.20 1237.33 432.65 1221.22 426.82 C 1221.19 429.09 1221.14 431.36 1221.06 433.63 C 1226.71 434.14 1232.96 434.66 1237.34 438.72 C 1246.00 445.63 1247.49 458.90 1242.40 468.35 C 1239.69 473.65 1236.00 478.80 1230.60 481.58 C 1225.59 484.00 1219.66 483.39 1214.62 481.41 C 1210.88 479.73 1206.84 481.34 1202.97 481.04 C 1197.02 480.59 1191.46 477.80 1186.84 474.16 C 1179.54 467.24 1179.52 455.76 1182.83 446.90 C 1184.62 441.04 1189.17 436.50 1194.13 433.14 C 1197.50 430.86 1201.72 431.00 1205.62 430.72 C 1206.10 426.94 1207.30 423.13 1206.76 419.30 C 1203.99 417.20 1200.71 415.95 1197.76 414.17 C 1178.99 403.74 1160.43 392.75 1143.41 379.60 C 1140.15 377.00 1136.23 373.64 1136.94 368.98 C 1138.02 360.82 1143.48 354.16 1148.19 347.72 C 1136.38 337.33 1123.09 328.86 1110.44 319.56 C 1094.01 307.88 1077.74 295.87 1063.13 281.94 C 1057.17 277.57 1052.75 271.61 1047.90 266.13 C 1043.88 261.17 1040.90 255.44 1038.38 249.61 C 1036.05 244.35 1036.26 237.68 1040.31 233.30 C 1048.35 224.12 1058.58 217.03 1069.32 211.34 C 1090.04 200.88 1112.50 194.46 1134.90 188.74 M 1228.04 183.01 C 1206.10 184.99 1184.26 188.39 1162.89 193.77 C 1152.52 196.32 1142.15 199.11 1132.30 203.25 C 1129.23 204.75 1125.86 205.97 1123.37 208.33 C 1122.26 210.65 1124.50 212.32 1126.62 212.43 C 1136.03 213.77 1145.44 215.21 1154.88 216.36 C 1178.51 219.52 1202.29 220.69 1225.97 222.98 C 1233.08 222.49 1240.60 225.96 1247.31 222.31 C 1256.02 217.63 1261.77 209.10 1266.94 200.95 C 1269.55 195.90 1272.85 189.99 1270.81 184.19 C 1265.97 182.53 1260.81 183.33 1255.86 182.39 C 1246.57 181.14 1237.31 182.88 1228.04 183.01 Z" />
<path fill="#2f5fea" opacity="1.00" d=" M 1228.04 183.01 C 1237.31 182.88 1246.57 181.14 1255.86 182.39 C 1260.81 183.33 1265.97 182.53 1270.81 184.19 C 1272.85 189.99 1269.55 195.90 1266.94 200.95 C 1261.77 209.10 1256.02 217.63 1247.31 222.31 C 1240.60 225.96 1233.08 222.49 1225.97 222.98 C 1202.29 220.69 1178.51 219.52 1154.88 216.36 C 1145.44 215.21 1136.03 213.77 1126.62 212.43 C 1124.50 212.32 1122.26 210.65 1123.37 208.33 C 1125.86 205.97 1129.23 204.75 1132.30 203.25 C 1142.15 199.11 1152.52 196.32 1162.89 193.77 C 1184.26 188.39 1206.10 184.99 1228.04 183.01 Z" />
<path fill="#2e5ee7" opacity="1.00" d=" M 1160.96 233.21 C 1170.33 232.18 1179.64 233.85 1188.99 234.07 C 1248.48 238.41 1307.67 247.43 1365.64 261.53 C 1411.99 274.98 1458.09 289.28 1504.03 304.05 C 1515.97 307.61 1527.66 311.99 1539.66 315.40 C 1556.66 321.20 1573.79 326.58 1590.88 332.11 C 1650.00 352.00 1709.35 371.26 1768.33 391.57 C 1791.11 399.01 1813.61 407.24 1836.40 414.65 C 1844.66 417.91 1853.13 420.56 1861.56 423.35 C 1870.81 426.29 1879.82 429.93 1889.08 432.87 C 1898.81 435.95 1908.32 439.68 1918.00 442.93 L 1918.00 489.17 C 1867.54 471.37 1816.98 453.86 1766.36 436.53 C 1757.85 433.15 1749.03 430.65 1740.38 427.65 C 1714.23 418.29 1687.84 409.63 1661.66 400.38 C 1603.35 380.57 1545.37 359.80 1487.10 339.91 C 1443.86 325.39 1400.57 311.07 1357.33 296.59 C 1351.57 294.55 1345.57 293.27 1339.84 291.18 C 1319.64 284.13 1299.12 278.12 1278.90 271.14 C 1267.06 267.91 1255.66 263.31 1243.83 260.07 C 1225.71 254.12 1207.52 248.40 1189.34 242.66 C 1180.01 239.12 1170.14 237.15 1160.96 233.21 Z" />
<path fill="#2c5add" opacity="1.00" d=" M 255.95 455.96 C 265.26 456.37 274.52 454.15 283.82 455.40 C 293.06 456.53 302.40 455.41 311.64 456.50 C 358.35 459.13 404.94 464.71 451.03 472.91 C 488.60 479.79 526.03 488.15 562.09 500.92 C 576.65 506.41 591.28 512.12 604.44 520.54 C 611.74 524.66 618.03 530.24 624.49 535.50 C 629.29 539.40 633.92 544.01 636.20 549.87 C 638.40 555.87 636.14 562.18 633.74 567.73 C 626.66 583.52 615.04 596.89 601.82 607.89 C 594.90 614.68 587.29 620.70 579.89 626.95 C 573.06 633.22 565.36 638.43 557.99 644.04 C 549.09 650.45 540.33 657.05 531.29 663.27 C 529.01 664.74 527.04 666.61 525.09 668.50 C 527.52 671.88 530.50 674.93 532.36 678.69 C 535.90 690.04 532.68 702.08 534.92 713.61 C 533.37 713.59 531.84 713.58 530.30 713.63 C 530.18 714.03 529.92 714.81 529.79 715.20 C 528.41 707.17 530.56 699.05 529.66 690.98 C 529.70 683.38 525.62 676.74 520.97 671.07 C 521.82 669.84 522.67 668.62 523.53 667.41 C 521.00 663.82 519.31 659.69 516.43 656.37 C 512.82 652.42 507.36 650.88 502.15 650.96 C 463.35 650.93 424.55 650.96 385.75 650.94 C 385.74 655.44 385.75 659.93 385.76 664.43 C 387.22 664.56 388.68 664.66 390.16 664.75 C 389.76 665.93 389.37 667.12 388.98 668.32 C 384.86 668.24 380.74 668.32 376.63 668.41 C 376.77 698.27 376.65 728.14 376.69 758.00 L 0.00 758.00 L 0.00 698.31 C 18.24 692.88 35.99 685.96 54.09 680.12 C 95.61 666.29 137.13 652.48 178.64 638.63 C 196.37 632.50 214.38 627.26 232.11 621.13 C 243.11 617.31 254.32 614.09 265.36 610.38 C 273.21 607.87 280.95 605.02 288.91 602.85 C 350.49 582.53 412.46 563.38 474.09 543.24 C 464.69 542.09 455.37 543.99 445.98 543.98 C 369.91 548.76 294.19 559.74 219.87 576.72 C 207.79 579.22 195.84 582.36 184.08 586.12 C 147.64 596.71 111.38 607.93 75.16 619.24 C 50.11 627.25 24.91 634.80 0.00 643.23 L 0.00 516.98 C 17.74 511.49 35.41 505.74 53.16 500.28 C 87.25 489.59 121.29 478.59 155.99 469.98 C 188.72 461.85 222.39 458.45 255.95 455.96 M 345.31 476.45 C 339.45 477.37 333.35 476.81 327.67 478.72 C 324.82 483.09 326.85 488.22 328.44 492.64 C 332.04 501.11 337.05 509.00 343.23 515.83 C 346.91 520.79 351.84 524.71 356.93 528.14 C 364.01 533.12 373.04 530.72 380.98 530.00 C 386.05 530.35 390.97 528.82 396.02 528.98 C 432.38 526.13 468.88 523.44 504.99 517.77 C 510.57 516.92 516.39 516.85 521.65 514.59 C 522.80 514.20 523.41 512.38 522.66 511.39 C 520.60 508.22 516.82 506.95 513.65 505.23 C 504.42 500.96 494.62 498.13 484.90 495.22 C 453.22 486.61 420.78 480.59 388.07 477.62 C 381.76 476.52 375.31 477.41 369.00 476.24 C 361.12 475.88 353.16 475.74 345.31 476.45 Z" />
<path fill="#2f5fea" opacity="1.00" d=" M 345.31 476.45 C 353.16 475.74 361.12 475.88 369.00 476.24 C 375.31 477.41 381.76 476.52 388.07 477.62 C 420.78 480.59 453.22 486.61 484.90 495.22 C 494.62 498.13 504.42 500.96 513.65 505.23 C 516.82 506.95 520.60 508.22 522.66 511.39 C 523.41 512.38 522.80 514.20 521.65 514.59 C 516.39 516.85 510.57 516.92 504.99 517.77 C 468.88 523.44 432.38 526.13 396.02 528.98 C 390.97 528.82 386.05 530.35 380.98 530.00 C 373.04 530.72 364.01 533.12 356.93 528.14 C 351.84 524.71 346.91 520.79 343.23 515.83 C 337.05 509.00 332.04 501.11 328.44 492.64 C 326.85 488.22 324.82 483.09 327.67 478.72 C 333.35 476.81 339.45 477.37 345.31 476.45 Z" />
<path fill="#2e5fe7" opacity="1.00" d=" M 445.98 543.98 C 455.37 543.99 464.69 542.09 474.09 543.24 C 412.46 563.38 350.49 582.53 288.91 602.85 C 280.95 605.02 273.21 607.87 265.36 610.38 C 254.32 614.09 243.11 617.31 232.11 621.13 C 214.38 627.26 196.37 632.50 178.64 638.63 C 137.13 652.48 95.61 666.29 54.09 680.12 C 35.99 685.96 18.24 692.88 0.00 698.31 L 0.00 643.23 C 24.91 634.80 50.11 627.25 75.16 619.24 C 111.38 607.93 147.64 596.71 184.08 586.12 C 195.84 582.36 207.79 579.22 219.87 576.72 C 294.19 559.74 369.91 548.76 445.98 543.98 M 40.40 632.45 C 36.68 633.60 32.84 634.57 29.36 636.37 C 27.15 638.56 25.29 641.71 25.28 644.89 C 27.67 654.88 29.58 665.00 32.08 674.96 C 32.87 678.49 36.51 680.58 39.99 680.12 C 45.32 679.65 50.70 678.06 55.22 675.16 C 58.78 672.78 59.77 668.10 58.79 664.12 C 56.78 656.07 55.17 647.93 53.28 639.86 C 52.79 637.84 52.26 635.71 50.78 634.18 C 48.39 630.93 43.81 631.74 40.40 632.45 Z" />
<path fill="#ffffff" opacity="1.00" d=" M 1457.40 546.16 C 1459.30 548.09 1461.23 550.00 1463.16 551.93 C 1465.53 554.36 1467.84 556.88 1470.45 559.08 C 1470.35 625.38 1470.58 691.69 1470.34 758.00 L 1444.42 758.00 C 1444.43 701.63 1444.40 645.25 1444.44 588.88 C 1444.44 579.04 1444.45 569.20 1444.42 559.37 C 1448.68 554.91 1453.07 550.56 1457.40 546.16 Z" />
<path fill="#2b58d8" opacity="1.00" d=" M 1463.16 551.93 C 1469.09 549.57 1476.10 552.15 1480.34 556.64 C 1482.63 559.01 1485.22 561.38 1486.16 564.67 C 1487.51 568.91 1489.23 573.16 1489.05 577.70 C 1486.50 579.67 1484.52 582.27 1483.33 585.26 C 1482.08 578.94 1481.99 572.11 1478.57 566.47 C 1476.75 563.54 1473.92 561.50 1471.11 559.64 C 1470.95 559.50 1470.62 559.22 1470.45 559.08 C 1467.84 556.88 1465.53 554.36 1463.16 551.93 Z" />
<path fill="#2246ab" opacity="1.00" d=" M 1470.45 559.08 C 1470.62 559.22 1470.95 559.50 1471.11 559.64 C 1470.72 565.04 1471.12 570.46 1473.63 575.35 C 1474.76 584.19 1475.43 593.15 1475.12 602.09 C 1475.20 654.06 1475.09 706.03 1475.16 758.00 L 1470.34 758.00 C 1470.58 691.69 1470.35 625.38 1470.45 559.08 Z" />
<path fill="#264dbd" opacity="1.00" d=" M 1471.11 559.64 C 1473.92 561.50 1476.75 563.54 1478.57 566.47 C 1481.99 572.11 1482.08 578.94 1483.33 585.26 C 1482.71 609.82 1483.23 634.41 1483.06 658.98 C 1483.06 691.99 1483.06 724.99 1483.06 758.00 L 1475.16 758.00 C 1475.09 706.03 1475.20 654.06 1475.12 602.09 C 1475.43 593.15 1474.76 584.19 1473.63 575.35 C 1471.12 570.46 1470.72 565.04 1471.11 559.64 Z" />
<path fill="#ffffff" opacity="1.00" d=" M 1405.82 597.97 C 1412.51 591.19 1419.20 584.40 1425.97 577.69 C 1429.10 580.35 1431.57 583.90 1431.77 588.14 C 1431.80 593.21 1431.69 598.28 1431.78 603.35 C 1431.72 654.90 1431.76 706.45 1431.75 758.00 L 1405.82 758.00 C 1405.83 749.00 1405.77 739.99 1405.82 730.99 C 1405.82 686.65 1405.82 642.31 1405.82 597.97 Z" />
<path fill="#ffffff" opacity="1.00" d=" M 1483.33 585.26 C 1484.52 582.27 1486.50 579.67 1489.05 577.70 C 1491.33 580.21 1493.76 582.56 1496.18 584.94 C 1500.46 589.25 1504.77 593.53 1509.04 597.86 C 1509.02 599.22 1509.03 600.60 1509.06 601.98 C 1509.04 653.98 1509.03 705.99 1509.06 758.00 L 1483.06 758.00 C 1483.06 724.99 1483.06 691.99 1483.06 658.98 C 1483.23 634.41 1482.71 609.82 1483.33 585.26 Z" />
<path fill="#2a56d2" opacity="1.00" d=" M 1496.18 584.94 C 1498.67 584.26 1501.28 583.52 1503.87 584.25 C 1510.45 585.63 1514.69 591.33 1519.23 595.79 C 1524.12 601.61 1527.27 609.28 1526.95 616.95 C 1526.80 663.97 1527.03 710.99 1526.85 758.00 L 1518.23 758.00 C 1517.94 712.01 1518.19 666.01 1518.06 620.02 C 1518.49 612.82 1516.23 605.08 1510.78 600.14 C 1510.19 600.74 1509.61 601.35 1509.06 601.98 C 1509.03 600.60 1509.02 599.22 1509.04 597.86 C 1504.77 593.53 1500.46 589.25 1496.18 584.94 Z" />
<path fill="#264ebf" opacity="1.00" d=" M 1431.77 588.14 C 1436.00 588.08 1440.24 588.24 1444.44 588.88 C 1444.40 645.25 1444.43 701.63 1444.42 758.00 L 1436.21 758.00 C 1436.09 716.02 1436.24 674.04 1436.18 632.06 C 1435.98 623.48 1436.89 614.73 1434.69 606.32 C 1434.44 604.79 1432.77 604.24 1431.78 603.35 C 1431.69 598.28 1431.80 593.21 1431.77 588.14 Z" />
<path fill="#2449b3" opacity="1.00" d=" M 1509.06 601.98 C 1509.61 601.35 1510.19 600.74 1510.78 600.14 C 1516.23 605.08 1518.49 612.82 1518.06 620.02 C 1518.19 666.01 1517.94 712.01 1518.23 758.00 L 1509.06 758.00 C 1509.03 705.99 1509.04 653.98 1509.06 601.98 Z" />
<path fill="#2347ae" opacity="1.00" d=" M 1431.78 603.35 C 1432.77 604.24 1434.44 604.79 1434.69 606.32 C 1436.89 614.73 1435.98 623.48 1436.18 632.06 C 1436.24 674.04 1436.09 716.02 1436.21 758.00 L 1431.75 758.00 C 1431.76 706.45 1431.72 654.90 1431.78 603.35 Z" />
<path fill="#ffffff" opacity="1.00" d=" M 821.89 636.82 C 832.64 631.62 843.24 626.14 853.96 620.90 C 853.97 622.72 853.99 624.54 854.03 626.38 C 844.51 630.95 835.12 635.82 825.67 640.54 C 823.52 641.54 821.47 642.93 819.09 643.25 C 817.25 643.01 816.58 640.86 817.45 639.40 C 818.80 638.33 820.35 637.58 821.89 636.82 Z" />
<path fill="#ffffff" opacity="1.00" d=" M 858.23 622.25 C 874.70 627.36 891.20 632.37 907.66 637.51 C 909.38 637.78 909.89 639.40 910.39 640.85 C 909.31 641.69 908.09 643.01 906.60 642.28 C 895.85 639.15 885.22 635.59 874.48 632.45 C 869.10 630.69 863.70 629.03 858.28 627.40 C 858.28 626.75 858.27 625.44 858.27 624.79 C 858.26 624.15 858.24 622.89 858.23 622.25 Z" />
<path fill="#ffffff" opacity="1.00" d=" M 592.81 649.19 C 593.03 640.44 593.75 631.70 593.47 622.95 C 594.78 634.00 594.49 645.17 595.11 656.27 C 595.51 668.45 595.96 680.62 596.37 692.80 C 594.57 692.80 592.78 692.80 591.00 692.81 C 591.86 678.28 592.14 663.72 592.81 649.19 Z" />
<path fill="#2c5add" opacity="1.00" d=" M 854.03 626.38 C 855.42 625.81 856.84 625.29 858.27 624.79 C 858.27 625.44 858.28 626.75 858.28 627.40 C 863.70 629.03 869.10 630.69 874.48 632.45 C 870.98 632.90 867.46 633.22 863.95 632.99 C 855.44 632.33 847.39 636.04 840.20 640.19 C 837.07 642.22 833.08 644.46 833.14 648.75 C 829.99 650.34 826.85 651.93 823.68 653.48 C 822.09 649.05 824.28 644.69 825.67 640.54 C 835.12 635.82 844.51 630.95 854.03 626.38 Z" />
<path fill="#2c5add" opacity="1.00" d=" M 40.40 632.45 C 43.81 631.74 48.39 630.93 50.78 634.18 C 52.26 635.71 52.79 637.84 53.28 639.86 C 55.17 647.93 56.78 656.07 58.79 664.12 C 59.77 668.10 58.78 672.78 55.22 675.16 C 50.70 678.06 45.32 679.65 39.99 680.12 C 36.51 680.58 32.87 678.49 32.08 674.96 C 29.58 665.00 27.67 654.88 25.28 644.89 C 25.29 641.71 27.15 638.56 29.36 636.37 C 32.84 634.57 36.68 633.60 40.40 632.45 Z" />
<path fill="#2a55d0" opacity="1.00" d=" M 840.20 640.19 C 847.39 636.04 855.44 632.33 863.95 632.99 C 867.46 633.22 870.98 632.90 874.48 632.45 C 885.22 635.59 895.85 639.15 906.60 642.28 C 908.09 643.01 909.31 641.69 910.39 640.85 C 910.69 640.51 911.29 639.83 911.59 639.49 C 914.11 640.79 916.66 642.28 918.23 644.75 C 920.59 647.64 919.71 651.56 919.89 654.99 C 919.69 660.34 921.41 665.60 920.73 670.95 C 919.99 676.61 921.50 682.27 920.73 687.92 C 919.07 694.23 921.45 700.62 920.09 706.95 C 919.40 710.66 920.54 714.33 920.85 718.01 C 921.16 722.03 919.35 725.93 920.01 729.96 C 920.46 733.26 921.26 736.58 920.70 739.93 C 919.74 745.94 921.36 751.96 920.84 758.00 L 900.45 758.00 C 886.40 753.62 872.33 749.30 858.26 744.97 C 858.23 746.64 858.22 748.32 858.21 750.01 C 866.67 752.76 875.22 755.26 883.68 758.00 L 836.21 758.00 C 842.10 754.93 848.06 752.00 854.00 749.03 C 853.99 747.22 853.98 745.41 853.98 743.62 C 845.29 747.89 836.63 752.21 827.99 756.56 C 827.56 756.30 826.72 755.78 826.30 755.52 C 826.64 752.00 827.01 748.47 827.21 744.94 C 836.11 740.51 844.96 735.98 853.90 731.63 C 853.92 729.77 853.96 727.92 854.04 726.08 C 844.95 730.50 835.93 735.08 826.88 739.58 C 826.16 735.61 827.30 731.62 826.83 727.64 C 835.86 723.03 844.96 718.54 854.01 713.98 C 853.99 712.15 853.97 710.33 853.96 708.52 C 845.27 712.70 836.71 717.16 828.06 721.43 C 827.61 721.22 826.72 720.81 826.27 720.60 C 826.68 717.05 827.05 713.49 827.20 709.92 C 836.11 705.48 844.97 700.93 853.94 696.60 C 853.93 694.71 853.95 692.83 854.00 690.97 C 844.93 695.39 835.95 699.99 826.92 704.50 C 826.10 700.53 827.04 696.51 826.81 692.52 C 835.86 687.97 844.94 683.49 854.00 678.96 C 853.99 677.13 853.98 675.30 853.98 673.48 C 845.28 677.67 836.71 682.13 828.05 686.41 C 827.61 686.20 826.74 685.77 826.30 685.56 C 826.76 681.99 827.12 678.40 827.16 674.81 C 836.10 670.23 845.14 665.85 854.07 661.25 C 854.02 659.47 853.98 657.71 853.93 655.95 C 845.62 660.02 837.37 664.22 829.08 668.31 C 828.34 668.13 826.86 667.77 826.12 667.60 C 826.81 664.25 827.00 660.83 826.87 657.43 C 835.90 652.88 844.96 648.37 854.01 643.84 C 853.99 642.04 853.97 640.23 853.98 638.45 C 846.99 641.80 840.09 645.32 833.14 648.75 C 833.08 644.46 837.07 642.22 840.20 640.19 M 858.25 639.85 C 858.23 641.51 858.23 643.18 858.24 644.86 C 874.14 649.81 890.05 654.73 905.97 659.64 C 908.21 661.08 911.39 658.49 909.71 656.12 C 907.61 654.53 904.82 654.25 902.40 653.36 C 887.67 648.90 873.02 644.19 858.25 639.85 M 858.23 657.29 C 858.26 658.99 858.28 660.71 858.29 662.44 C 874.62 667.34 890.83 672.65 907.19 677.43 C 910.16 678.33 911.35 673.28 908.26 672.74 C 891.62 667.49 874.91 662.44 858.23 657.29 M 858.25 674.84 C 858.23 676.51 858.23 678.19 858.24 679.88 C 874.49 684.89 890.69 690.07 906.99 694.90 C 909.65 696.09 911.55 691.36 908.68 690.53 C 891.92 685.17 875.08 680.00 858.25 674.84 M 858.24 692.31 C 858.25 694.01 858.26 695.72 858.28 697.44 C 873.87 702.24 889.45 707.07 905.03 711.92 C 906.56 712.32 908.40 713.27 909.65 711.70 C 910.77 710.24 909.87 708.15 908.13 707.83 C 891.52 702.59 874.87 697.49 858.24 692.31 M 858.23 709.89 C 858.23 711.56 858.23 713.23 858.25 714.92 C 874.49 719.94 890.70 725.05 906.97 729.96 C 909.73 731.22 911.51 726.47 908.70 725.57 C 891.93 720.20 875.09 715.01 858.23 709.89 M 858.26 727.34 C 858.25 729.07 858.25 730.82 858.26 732.57 C 874.34 737.50 890.38 742.56 906.48 747.46 C 908.20 748.27 910.23 746.94 910.22 745.03 C 910.01 743.33 908.34 742.92 907.01 742.45 C 890.74 737.45 874.51 732.37 858.26 727.34 Z" />
<path fill="#ffffff" opacity="1.00" d=" M 833.14 648.75 C 840.09 645.32 846.99 641.80 853.98 638.45 C 853.97 640.23 853.99 642.04 854.01 643.84 C 844.96 648.37 835.90 652.88 826.87 657.43 C 824.54 658.55 822.31 659.90 819.85 660.69 C 817.66 661.28 816.10 658.22 817.70 656.72 C 819.54 655.38 821.66 654.50 823.68 653.48 C 826.85 651.93 829.99 650.34 833.14 648.75 Z" />
<path fill="#ffffff" opacity="1.00" d=" M 858.25 639.85 C 873.02 644.19 887.67 648.90 902.40 653.36 C 904.82 654.25 907.61 654.53 909.71 656.12 C 911.39 658.49 908.21 661.08 905.97 659.64 C 890.05 654.73 874.14 649.81 858.24 644.86 C 858.23 643.18 858.23 641.51 858.25 639.85 Z" />
<path fill="#2b59da" opacity="1.00" d=" M 595.11 656.27 C 596.15 651.16 598.18 645.79 602.82 642.91 C 604.67 644.46 606.59 645.97 608.19 647.81 C 612.69 652.57 613.01 659.66 612.74 665.85 C 611.39 672.07 612.61 678.38 613.51 684.58 C 614.08 688.42 615.57 692.04 617.00 695.63 C 607.99 695.63 598.99 695.62 589.98 695.64 C 590.24 694.93 590.75 693.51 591.00 692.81 C 592.78 692.80 594.57 692.80 596.37 692.80 C 595.96 680.62 595.51 668.45 595.11 656.27 Z" />
<path fill="#ffffff" opacity="1.00" d=" M 385.75 650.94 C 424.55 650.96 463.35 650.93 502.15 650.96 C 502.13 655.40 502.10 659.84 502.10 664.28 C 463.32 664.53 424.54 664.25 385.76 664.43 C 385.75 659.93 385.74 655.44 385.75 650.94 Z" />
<path fill="#2852c9" opacity="1.00" d=" M 502.15 650.96 C 507.36 650.88 512.82 652.42 516.43 656.37 C 519.31 659.69 521.00 663.82 523.53 667.41 C 522.67 668.62 521.82 669.84 520.97 671.07 C 525.62 676.74 529.70 683.38 529.66 690.98 C 530.56 699.05 528.41 707.17 529.79 715.20 C 530.31 720.94 529.95 726.71 530.07 732.47 C 533.96 732.54 537.83 732.79 541.72 733.02 C 541.57 733.59 541.28 734.73 541.14 735.31 C 534.13 735.31 527.13 735.31 520.13 735.31 C 520.35 722.20 520.10 709.09 520.33 695.98 C 520.25 692.68 520.53 689.16 518.97 686.13 C 517.52 683.24 515.56 680.65 514.07 677.78 C 514.00 674.62 514.03 671.47 514.02 668.32 C 511.81 668.31 509.61 668.30 507.40 668.30 C 505.96 666.58 504.80 663.85 502.10 664.28 C 502.10 659.84 502.13 655.40 502.15 650.96 Z" />
<path fill="#ffffff" opacity="1.00" d=" M 829.08 668.31 C 837.37 664.22 845.62 660.02 853.93 655.95 C 853.98 657.71 854.02 659.47 854.07 661.25 C 845.14 665.85 836.10 670.23 827.16 674.81 C 824.78 675.97 822.48 677.34 819.96 678.16 C 817.55 679.01 815.93 675.26 818.03 674.03 C 821.51 671.76 825.43 670.28 829.08 668.31 Z" />
<path fill="#ffffff" opacity="1.00" d=" M 858.23 657.29 C 874.91 662.44 891.62 667.49 908.26 672.74 C 911.35 673.28 910.16 678.33 907.19 677.43 C 890.83 672.65 874.62 667.34 858.29 662.44 C 858.28 660.71 858.26 658.99 858.23 657.29 Z" />
<path fill="#2246ac" opacity="1.00" d=" M 385.76 664.43 C 424.54 664.25 463.32 664.53 502.10 664.28 C 504.80 663.85 505.96 666.58 507.40 668.30 C 471.25 668.34 435.10 668.31 398.94 668.31 C 399.54 667.27 400.15 666.26 400.75 665.24 C 397.23 664.93 393.69 664.87 390.16 664.75 C 388.68 664.66 387.22 664.56 385.76 664.43 Z" />
<path fill="#2750c4" opacity="1.00" d=" M 390.16 664.75 C 393.69 664.87 397.23 664.93 400.75 665.24 C 400.15 666.26 399.54 667.27 398.94 668.31 C 395.62 668.31 392.30 668.30 388.98 668.32 C 389.37 667.12 389.76 665.93 390.16 664.75 Z" />
<path fill="#ffffff" opacity="1.00" d=" M 376.63 668.41 C 380.74 668.32 384.86 668.24 388.98 668.32 C 392.30 668.30 395.62 668.31 398.94 668.31 C 435.10 668.31 471.25 668.34 507.40 668.30 C 509.61 668.30 511.81 668.31 514.02 668.32 C 514.03 671.47 514.00 674.62 514.07 677.78 C 514.04 696.96 514.05 716.13 514.06 735.31 C 516.08 735.30 518.10 735.30 520.13 735.31 C 527.13 735.31 534.13 735.31 541.14 735.31 C 580.96 735.29 620.78 735.35 660.60 735.28 C 662.86 735.29 665.12 735.30 667.39 735.31 C 669.60 735.30 671.82 735.30 674.04 735.31 C 674.03 737.85 674.03 740.39 674.04 742.95 C 676.86 741.54 679.69 740.14 682.51 738.74 C 684.41 737.78 686.32 736.84 688.24 735.91 C 688.20 737.22 688.16 738.53 688.10 739.86 C 687.76 740.06 687.09 740.45 686.76 740.65 C 684.11 741.95 681.47 743.24 678.84 744.57 C 677.23 745.37 675.64 746.19 674.05 747.00 C 674.04 749.95 674.03 752.91 674.03 755.87 C 678.60 753.64 683.08 751.25 687.63 748.98 L 688.24 749.12 C 688.21 750.36 688.19 751.62 688.18 752.89 C 684.78 754.48 681.48 756.25 678.17 758.00 L 665.19 758.00 C 665.18 755.76 665.18 753.54 665.19 751.32 C 664.91 751.50 664.37 751.87 664.09 752.06 C 664.08 754.03 664.06 756.01 664.04 758.00 L 643.00 758.00 C 643.00 755.25 643.00 752.50 643.01 749.75 C 649.69 749.26 656.66 750.85 663.13 748.74 C 656.00 748.50 648.86 748.66 641.73 748.64 C 641.61 751.74 642.30 755.05 641.22 758.00 L 635.31 758.00 C 635.30 754.87 635.31 751.75 635.31 748.64 C 627.55 748.59 619.80 748.68 612.05 748.57 C 611.99 751.71 611.87 754.85 611.93 758.00 L 605.50 758.00 C 605.51 754.86 605.48 751.73 605.45 748.61 C 597.68 748.64 589.90 748.61 582.13 748.63 C 582.12 751.75 582.11 754.87 582.12 758.00 L 575.57 758.00 C 575.58 754.86 575.54 751.72 575.50 748.59 C 567.71 748.66 559.92 748.61 552.13 748.63 C 552.12 751.74 552.11 754.87 552.12 758.00 L 545.76 758.00 C 545.75 754.87 545.75 751.75 545.75 748.63 C 537.93 748.64 530.11 748.59 522.29 748.67 C 522.30 751.77 522.31 754.88 522.31 758.00 L 504.12 758.00 C 504.12 754.87 504.12 751.75 504.12 748.63 C 494.93 748.62 485.75 748.62 476.56 748.62 C 476.52 751.74 476.53 754.87 476.68 758.00 L 473.12 758.00 C 473.12 754.87 473.12 751.74 473.12 748.63 C 463.93 748.62 454.75 748.62 445.57 748.63 C 445.50 751.75 445.54 754.87 445.68 758.00 L 442.25 758.00 C 442.24 754.87 442.24 751.75 442.24 748.63 C 433.06 748.62 423.87 748.62 414.69 748.63 C 414.69 751.75 414.69 754.87 414.71 758.00 L 411.25 758.00 C 411.25 754.87 411.25 751.75 411.24 748.63 C 404.45 748.61 397.66 748.64 390.87 748.63 C 388.54 748.62 386.21 748.62 383.89 748.63 C 383.88 751.75 383.88 754.87 383.88 758.00 L 376.69 758.00 C 376.65 728.14 376.77 698.27 376.63 668.41 M 414.67 680.54 C 414.66 697.23 414.78 713.92 414.61 730.61 C 423.80 730.91 433.00 730.64 442.19 730.78 C 442.35 714.04 442.17 697.30 442.28 680.57 C 433.08 680.44 423.87 680.49 414.67 680.54 M 476.54 680.53 C 476.56 697.25 476.61 713.96 476.52 730.68 C 485.69 730.84 494.86 730.69 504.03 730.77 C 504.26 714.04 504.02 697.30 504.15 680.57 C 494.95 680.43 485.74 680.50 476.54 680.53 M 383.88 680.52 C 383.87 697.25 383.91 713.98 383.86 730.72 C 392.97 730.72 402.09 730.75 411.21 730.77 C 411.30 714.01 411.22 697.26 411.25 680.51 C 405.52 680.48 399.79 680.52 394.07 680.51 C 390.67 680.48 387.27 680.49 383.88 680.52 M 445.57 680.51 C 445.52 697.22 445.64 713.94 445.51 730.66 C 454.69 730.87 463.88 730.68 473.07 730.76 C 473.18 714.01 473.09 697.26 473.12 680.51 C 463.93 680.50 454.75 680.50 445.57 680.51 Z" />
<path fill="#ffffff" opacity="1.00" d=" M 828.05 686.41 C 836.71 682.13 845.28 677.67 853.98 673.48 C 853.98 675.30 853.99 677.13 854.00 678.96 C 844.94 683.49 835.86 687.97 826.81 692.52 C 824.49 693.61 822.28 694.95 819.84 695.74 C 817.70 696.40 815.98 693.09 817.82 691.79 C 821.01 689.63 824.67 688.26 828.05 686.41 Z" />
<path fill="#ffffff" opacity="1.00" d=" M 858.25 674.84 C 875.08 680.00 891.92 685.17 908.68 690.53 C 911.55 691.36 909.65 696.09 906.99 694.90 C 890.69 690.07 874.49 684.89 858.24 679.88 C 858.23 678.19 858.23 676.51 858.25 674.84 Z" />
<path fill="#2348b1" opacity="1.00" d=" M 514.07 677.78 C 515.56 680.65 517.52 683.24 518.97 686.13 C 520.53 689.16 520.25 692.68 520.33 695.98 C 520.10 709.09 520.35 722.20 520.13 735.31 C 518.10 735.30 516.08 735.30 514.06 735.31 C 514.05 716.13 514.04 696.96 514.07 677.78 Z" />
<path fill="#20419f" opacity="1.00" d=" M 414.67 680.54 C 423.87 680.49 433.08 680.44 442.28 680.57 C 442.17 697.30 442.35 714.04 442.19 730.78 C 433.00 730.64 423.80 730.91 414.61 730.61 C 414.78 713.92 414.66 697.23 414.67 680.54 M 417.36 683.14 C 417.37 698.10 417.41 713.06 417.33 728.03 C 424.76 728.23 432.21 728.15 439.65 728.05 C 439.61 713.08 439.61 698.12 439.65 683.16 C 432.22 683.09 424.79 683.11 417.36 683.14 Z" />
<path fill="#2042a1" opacity="1.00" d=" M 476.54 680.53 C 485.74 680.50 494.95 680.43 504.15 680.57 C 504.02 697.30 504.26 714.04 504.03 730.77 C 494.86 730.69 485.69 730.84 476.52 730.68 C 476.61 713.96 476.56 697.25 476.54 680.53 M 479.25 683.13 C 479.25 698.12 479.25 713.10 479.24 728.09 C 486.64 728.18 494.03 728.10 501.43 728.12 C 501.44 713.12 501.46 698.12 501.43 683.12 C 494.03 683.13 486.64 683.11 479.25 683.13 Z" />
<path fill="#274fc3" opacity="1.00" d=" M 383.88 680.52 C 387.27 680.49 390.67 680.48 394.07 680.51 C 393.79 681.16 393.22 682.47 392.94 683.12 C 390.79 683.12 388.65 683.11 386.51 683.11 C 386.50 698.10 386.48 713.09 386.52 728.08 C 388.03 728.56 389.54 729.05 391.05 729.56 C 388.65 729.95 386.26 730.36 383.86 730.72 C 383.91 713.98 383.87 697.25 383.88 680.52 Z" />
<path fill="#2042a1" opacity="1.00" d=" M 394.07 680.51 C 399.79 680.52 405.52 680.48 411.25 680.51 C 411.22 697.26 411.30 714.01 411.21 730.77 C 402.09 730.75 392.97 730.72 383.86 730.72 C 386.26 730.36 388.65 729.95 391.05 729.56 C 389.54 729.05 388.03 728.56 386.52 728.08 C 393.90 728.22 401.27 728.13 408.64 728.06 C 408.60 713.08 408.63 698.11 408.63 683.13 C 403.40 683.11 398.17 683.12 392.94 683.12 C 393.22 682.47 393.79 681.16 394.07 680.51 Z" />
<path fill="#1f409c" opacity="1.00" d=" M 445.57 680.51 C 454.75 680.50 463.93 680.50 473.12 680.51 C 473.09 697.26 473.18 714.01 473.07 730.76 C 463.88 730.68 454.69 730.87 445.51 730.66 C 445.64 713.94 445.52 697.22 445.57 680.51 M 448.24 683.14 C 448.26 698.12 448.25 713.10 448.24 728.09 C 455.64 728.16 463.04 728.10 470.44 728.13 C 470.42 713.12 470.45 698.12 470.43 683.11 C 463.03 683.14 455.63 683.10 448.24 683.14 Z" />
<path fill="#ffffff" opacity="1.00" d=" M 386.51 683.11 C 388.65 683.11 390.79 683.12 392.94 683.12 C 398.17 683.12 403.40 683.11 408.63 683.13 C 408.63 698.11 408.60 713.08 408.64 728.06 C 401.27 728.13 393.90 728.22 386.52 728.08 C 386.48 713.09 386.50 698.10 386.51 683.11 Z" />
<path fill="#ffffff" opacity="1.00" d=" M 417.36 683.14 C 424.79 683.11 432.22 683.09 439.65 683.16 C 439.61 698.12 439.61 713.08 439.65 728.05 C 432.21 728.15 424.76 728.23 417.33 728.03 C 417.41 713.06 417.37 698.10 417.36 683.14 Z" />
<path fill="#ffffff" opacity="1.00" d=" M 448.24 683.14 C 455.63 683.10 463.03 683.14 470.43 683.11 C 470.45 698.12 470.42 713.12 470.44 728.13 C 463.04 728.10 455.64 728.16 448.24 728.09 C 448.25 713.10 448.26 698.12 448.24 683.14 Z" />
<path fill="#ffffff" opacity="1.00" d=" M 479.25 683.13 C 486.64 683.11 494.03 683.13 501.43 683.12 C 501.46 698.12 501.44 713.12 501.43 728.12 C 494.03 728.10 486.64 728.18 479.24 728.09 C 479.25 713.10 479.25 698.12 479.25 683.13 Z" />
<path fill="#ffffff" opacity="1.00" d=" M 826.92 704.50 C 835.95 699.99 844.93 695.39 854.00 690.97 C 853.95 692.83 853.93 694.71 853.94 696.60 C 844.97 700.93 836.11 705.48 827.20 709.92 C 824.81 711.08 822.51 712.45 819.98 713.30 C 817.89 714.01 816.24 711.19 817.48 709.55 C 820.37 707.44 823.78 706.18 826.92 704.50 Z" />
<path fill="#ffffff" opacity="1.00" d=" M 858.24 692.31 C 874.87 697.49 891.52 702.59 908.13 707.83 C 909.87 708.15 910.77 710.24 909.65 711.70 C 908.40 713.27 906.56 712.32 905.03 711.92 C 889.45 707.07 873.87 702.24 858.28 697.44 C 858.26 695.72 858.25 694.01 858.24 692.31 Z" />
<path fill="#ffffff" opacity="1.00" d=" M 552.61 695.68 C 565.07 695.57 577.53 695.67 589.98 695.64 C 598.99 695.62 607.99 695.63 617.00 695.63 C 622.94 695.63 628.88 695.65 634.83 695.60 C 634.83 696.12 634.84 697.16 634.85 697.69 C 634.87 701.71 634.97 705.74 634.84 709.76 L 634.68 710.75 C 609.21 710.76 583.74 710.75 558.28 710.76 C 556.42 710.76 554.57 710.78 552.73 710.79 C 552.58 705.75 552.63 700.71 552.61 695.68 Z" />
<path fill="#2a56d3" opacity="1.00" d=" M 634.85 697.69 C 637.81 698.29 640.80 699.01 643.42 700.59 C 648.65 703.32 651.57 708.73 654.55 713.56 C 650.76 713.54 646.97 713.73 643.18 713.61 C 640.47 712.17 637.65 710.98 634.84 709.76 C 634.97 705.74 634.87 701.71 634.85 697.69 Z" />
<path fill="#ffffff" opacity="1.00" d=" M 1066.45 725.46 C 1087.34 716.33 1108.23 707.18 1129.13 698.06 C 1129.08 702.47 1129.09 706.88 1129.17 711.30 C 1129.07 726.86 1129.09 742.43 1129.12 758.00 L 1066.45 758.00 C 1066.44 747.15 1066.42 736.30 1066.45 725.46 Z" />
<path fill="#ffffff" opacity="1.00" d=" M 1131.25 706.74 C 1131.31 704.01 1131.36 701.29 1131.39 698.57 C 1134.88 699.40 1138.37 700.26 1141.88 701.07 C 1141.87 702.45 1141.87 703.84 1141.89 705.24 C 1141.88 708.15 1141.87 711.07 1141.87 713.99 C 1138.34 713.30 1134.82 712.61 1131.30 711.92 C 1131.27 710.18 1131.24 708.46 1131.25 706.74 Z" />
<path fill="#ffffff" opacity="1.00" d=" M 1144.02 701.56 C 1146.03 701.99 1148.06 702.43 1150.08 702.87 C 1150.09 704.55 1150.11 706.24 1150.14 707.94 C 1150.16 724.63 1150.07 741.31 1150.13 758.00 L 1144.00 758.00 C 1144.01 740.42 1144.00 722.85 1143.97 705.27 C 1143.98 704.35 1144.01 702.49 1144.02 701.56 Z" />
<path fill="#ffffff" opacity="1.00" d=" M 1263.63 713.61 C 1284.03 709.60 1304.51 705.95 1324.94 702.08 C 1324.91 705.23 1324.89 708.40 1325.04 711.56 C 1324.96 720.91 1325.11 730.26 1324.97 739.61 C 1306.37 744.74 1287.66 749.59 1269.19 755.11 C 1269.03 755.63 1268.71 756.68 1268.55 757.21 C 1287.39 752.20 1306.13 746.83 1324.93 741.67 C 1324.94 747.11 1324.94 752.55 1324.94 758.00 L 1262.51 758.00 C 1262.50 754.86 1262.49 751.72 1262.44 748.59 C 1262.77 748.18 1263.41 747.36 1263.74 746.95 C 1263.70 746.33 1263.63 745.10 1263.60 744.48 C 1263.17 744.09 1262.31 743.33 1261.88 742.95 C 1262.37 742.60 1263.35 741.90 1263.85 741.55 C 1263.72 741.05 1263.47 740.04 1263.34 739.53 C 1263.17 739.11 1262.84 738.26 1262.67 737.84 C 1262.46 735.79 1262.45 733.73 1262.43 731.69 C 1262.76 731.30 1263.42 730.51 1263.74 730.11 C 1263.65 724.61 1263.72 719.11 1263.63 713.61 Z" />
<path fill="#ffffff" opacity="1.00" d=" M 1326.54 702.08 C 1349.43 709.54 1372.34 716.94 1395.21 724.47 C 1395.30 735.65 1395.01 746.82 1395.12 758.00 L 1377.97 758.00 C 1361.91 752.32 1345.84 746.68 1329.74 741.12 C 1328.79 740.60 1326.93 740.50 1327.22 738.99 C 1326.95 732.36 1327.02 725.73 1326.85 719.11 C 1326.78 713.43 1326.69 707.75 1326.54 702.08 Z" />
<path fill="#ffffff" opacity="1.00" d=" M 1152.21 703.65 C 1157.97 705.05 1163.75 706.41 1169.52 707.84 C 1169.55 711.75 1169.52 715.66 1169.51 719.58 C 1163.73 718.40 1157.96 717.23 1152.19 716.06 C 1152.17 713.73 1152.16 711.41 1152.18 709.10 C 1152.17 707.27 1152.18 705.46 1152.21 703.65 Z" />
<path fill="#2449b2" opacity="1.00" d=" M 1141.89 705.24 C 1142.41 705.25 1143.45 705.27 1143.97 705.27 C 1144.00 722.85 1144.01 740.42 1144.00 758.00 L 1142.82 758.00 C 1139.04 756.70 1135.14 755.89 1131.22 755.21 C 1131.29 755.91 1131.44 757.30 1131.51 758.00 L 1129.12 758.00 C 1129.09 742.43 1129.07 726.86 1129.17 711.30 C 1129.83 709.76 1130.58 708.27 1131.25 706.74 C 1131.24 708.46 1131.27 710.18 1131.30 711.92 C 1134.82 712.61 1138.34 713.30 1141.87 713.99 C 1141.87 711.07 1141.88 708.15 1141.89 705.24 M 1131.25 715.09 C 1131.27 715.72 1131.32 716.99 1131.34 717.62 C 1134.84 718.30 1138.33 718.99 1141.83 719.70 C 1141.85 719.10 1141.88 717.89 1141.90 717.28 C 1138.35 716.52 1134.80 715.76 1131.25 715.09 M 1131.27 720.91 C 1131.35 731.25 1131.32 741.59 1131.30 751.94 C 1134.80 752.71 1138.34 753.40 1141.88 754.07 C 1141.87 743.71 1141.88 733.36 1141.88 723.00 C 1138.35 722.23 1134.83 721.45 1131.27 720.91 Z" />
<path fill="#2449b4" opacity="1.00" d=" M 1150.14 707.94 C 1150.65 708.23 1151.67 708.81 1152.18 709.10 C 1152.16 711.41 1152.17 713.73 1152.19 716.06 C 1157.96 717.23 1163.73 718.40 1169.51 719.58 C 1169.52 715.66 1169.55 711.75 1169.52 707.84 C 1170.09 710.98 1170.90 714.08 1171.58 717.21 C 1171.69 730.81 1171.61 744.40 1171.65 758.00 L 1169.68 758.00 C 1169.23 748.20 1169.62 738.39 1169.49 728.58 C 1163.72 727.41 1157.95 726.23 1152.18 725.06 C 1152.19 735.42 1152.17 745.78 1152.20 756.14 C 1155.06 756.70 1157.89 757.38 1160.75 758.00 L 1150.13 758.00 C 1150.07 741.31 1150.16 724.63 1150.14 707.94 M 1152.22 719.34 C 1152.20 719.94 1152.17 721.13 1152.15 721.73 C 1158.02 722.72 1163.78 724.63 1169.76 724.89 C 1169.65 724.37 1169.44 723.33 1169.33 722.81 C 1163.62 721.68 1157.92 720.51 1152.22 719.34 Z" />
<path fill="#ffffff" opacity="1.00" d=" M 828.06 721.43 C 836.71 717.16 845.27 712.70 853.96 708.52 C 853.97 710.33 853.99 712.15 854.01 713.98 C 844.96 718.54 835.86 723.03 826.83 727.64 C 824.54 728.74 822.34 730.07 819.92 730.85 C 817.67 731.55 816.02 728.24 817.79 726.83 C 821.01 724.68 824.66 723.28 828.06 721.43 Z" />
<path fill="#ffffff" opacity="1.00" d=" M 1171.65 708.22 C 1173.61 708.64 1175.60 709.06 1177.59 709.48 C 1177.63 711.14 1177.64 712.79 1177.67 714.47 C 1177.61 728.98 1177.57 743.49 1177.65 758.00 L 1171.65 758.00 C 1171.61 744.40 1171.69 730.81 1171.58 717.21 C 1171.60 714.21 1171.65 711.21 1171.65 708.22 Z" />
<path fill="#2448b1" opacity="1.00" d=" M 634.84 709.76 C 637.65 710.98 640.47 712.17 643.18 713.61 C 614.88 713.65 586.58 713.62 558.28 713.61 C 558.28 712.90 558.28 711.47 558.28 710.76 C 583.74 710.75 609.21 710.76 634.68 710.75 L 634.84 709.76 Z" />
<path fill="#ffffff" opacity="1.00" d=" M 858.23 709.89 C 875.09 715.01 891.93 720.20 908.70 725.57 C 911.51 726.47 909.73 731.22 906.97 729.96 C 890.70 725.05 874.49 719.94 858.25 714.92 C 858.23 713.23 858.23 711.56 858.23 709.89 Z" />
<path fill="#244ab6" opacity="1.00" d=" M 1179.44 710.55 C 1180.13 710.56 1180.85 710.60 1181.59 710.66 C 1181.29 710.86 1180.67 711.24 1180.37 711.43 C 1178.79 714.52 1180.20 718.31 1179.87 721.68 C 1185.57 722.79 1191.24 723.98 1196.93 725.15 C 1196.94 722.82 1196.95 720.51 1196.93 718.20 C 1197.49 718.18 1198.60 718.15 1199.16 718.13 C 1199.06 731.42 1199.16 744.71 1199.13 758.00 L 1196.94 758.00 C 1196.93 750.05 1196.94 742.10 1196.94 734.16 C 1191.23 732.99 1185.53 731.82 1179.83 730.66 C 1179.82 739.77 1179.84 748.89 1179.85 758.00 L 1177.65 758.00 C 1177.57 743.49 1177.61 728.98 1177.67 714.47 C 1178.18 713.13 1178.77 711.82 1179.44 710.55 M 1179.69 724.93 C 1179.78 725.56 1179.95 726.83 1180.04 727.47 C 1185.70 728.46 1191.31 729.72 1196.95 730.85 C 1196.94 730.24 1196.91 729.02 1196.90 728.41 C 1191.15 727.28 1185.43 726.04 1179.69 724.93 Z" />
<path fill="#ffffff" opacity="1.00" d=" M 1180.37 711.43 C 1180.67 711.24 1181.29 710.86 1181.59 710.66 C 1186.64 712.12 1191.76 713.32 1196.89 714.51 C 1196.89 715.73 1196.91 716.96 1196.93 718.20 C 1196.95 720.51 1196.94 722.82 1196.93 725.15 C 1191.24 723.98 1185.57 722.79 1179.87 721.68 C 1180.20 718.31 1178.79 714.52 1180.37 711.43 Z" />
<path fill="#2245a8" opacity="1.00" d=" M 1325.04 711.56 C 1325.73 714.04 1326.53 716.52 1326.85 719.11 C 1327.02 725.73 1326.95 732.36 1327.22 738.99 C 1326.93 740.50 1328.79 740.60 1329.74 741.12 C 1345.84 746.68 1361.91 752.32 1377.97 758.00 L 1371.94 758.00 C 1357.14 752.38 1342.00 747.67 1327.06 742.44 C 1327.05 747.63 1327.05 752.81 1327.06 758.00 L 1324.94 758.00 C 1324.94 752.55 1324.94 747.11 1324.93 741.67 C 1306.13 746.83 1287.39 752.20 1268.55 757.21 C 1268.71 756.68 1269.03 755.63 1269.19 755.11 C 1287.66 749.59 1306.37 744.74 1324.97 739.61 C 1325.11 730.26 1324.96 720.91 1325.04 711.56 Z" />
<path fill="#ffffff" opacity="1.00" d=" M 530.30 713.63 C 531.84 713.58 533.37 713.59 534.92 713.61 C 542.70 713.64 550.49 713.66 558.28 713.61 C 586.58 713.62 614.88 713.65 643.18 713.61 C 646.97 713.73 650.76 713.54 654.55 713.56 C 655.54 713.62 656.55 713.71 657.55 713.88 C 657.57 717.42 657.56 720.96 657.55 724.51 C 657.53 727.03 657.56 729.57 657.77 732.11 C 641.19 732.74 624.58 732.19 607.99 732.37 C 582.01 732.41 556.04 732.29 530.07 732.47 C 529.95 726.71 530.31 720.94 529.79 715.20 C 529.92 714.81 530.18 714.03 530.30 713.63 M 539.19 718.60 C 539.08 721.70 539.01 724.82 539.07 727.94 C 545.08 727.92 551.09 727.98 557.11 727.97 C 557.23 724.82 557.14 721.69 556.91 718.56 C 551.01 718.68 545.10 718.66 539.19 718.60 M 562.22 718.60 C 562.05 721.68 561.96 724.77 562.05 727.87 C 568.11 727.98 574.18 727.99 580.25 727.95 C 580.24 724.86 580.25 721.78 580.27 718.70 C 574.26 718.53 568.24 718.70 562.22 718.60 M 585.23 718.61 C 585.19 721.70 585.15 724.80 585.17 727.90 C 591.10 728.01 597.03 727.92 602.96 727.98 C 603.02 724.84 602.94 721.70 602.88 718.57 C 597.00 718.67 591.11 718.62 585.23 718.61 M 608.24 718.61 C 608.20 721.69 608.15 724.77 608.14 727.86 C 614.20 728.01 620.27 727.97 626.34 727.90 C 626.04 724.80 625.80 721.68 625.82 718.57 C 619.96 718.67 614.10 718.62 608.24 718.61 M 631.27 718.62 C 631.24 721.71 631.21 724.82 631.22 727.92 C 637.26 728.02 643.30 728.03 649.35 727.86 C 649.30 724.79 649.28 721.73 649.30 718.68 C 643.29 718.60 637.28 718.63 631.27 718.62 Z" />
<path fill="#2b57d6" opacity="1.00" d=" M 657.55 713.88 C 662.36 716.11 668.08 717.07 671.68 721.30 C 674.64 724.18 675.38 728.39 677.07 732.00 C 678.53 734.50 680.62 736.56 682.51 738.74 C 679.69 740.14 676.86 741.54 674.04 742.95 C 674.03 740.39 674.03 737.85 674.04 735.31 C 671.82 735.30 669.60 735.30 667.39 735.31 C 666.58 730.05 662.73 725.78 657.55 724.51 C 657.56 720.96 657.57 717.42 657.55 713.88 Z" />
<path fill="#ffffff" opacity="1.00" d=" M 1131.25 715.09 C 1134.80 715.76 1138.35 716.52 1141.90 717.28 C 1141.88 717.89 1141.85 719.10 1141.83 719.70 C 1138.33 718.99 1134.84 718.30 1131.34 717.62 C 1131.32 716.99 1131.27 715.72 1131.25 715.09 Z" />
<path fill="#ffffff" opacity="1.00" d=" M 1199.16 718.13 C 1199.18 717.39 1199.21 715.91 1199.23 715.16 C 1201.12 715.57 1203.03 716.00 1204.94 716.43 L 1205.23 717.01 C 1205.37 730.67 1205.14 744.34 1205.25 758.00 L 1199.13 758.00 C 1199.16 744.71 1199.06 731.42 1199.16 718.13 Z" />
<path fill="#244ab6" opacity="1.00" d=" M 1205.23 717.01 C 1205.89 718.14 1206.60 719.22 1207.33 720.34 C 1207.40 722.60 1207.01 724.99 1207.69 727.18 C 1212.43 728.50 1217.35 729.07 1222.13 730.33 C 1223.00 730.57 1223.90 730.82 1224.82 731.06 C 1225.05 727.89 1225.55 724.75 1226.54 721.73 C 1226.94 733.81 1226.66 745.91 1226.78 758.00 L 1224.68 758.00 C 1224.39 751.87 1224.62 745.73 1224.56 739.60 C 1218.83 738.47 1213.10 737.34 1207.38 736.22 C 1207.37 743.48 1207.38 750.74 1207.39 758.00 L 1205.25 758.00 C 1205.14 744.34 1205.37 730.67 1205.23 717.01 M 1207.47 730.50 C 1207.41 731.07 1207.29 732.22 1207.23 732.79 C 1213.01 734.17 1218.86 735.23 1224.68 736.45 C 1224.61 735.81 1224.45 734.54 1224.37 733.90 C 1218.77 732.61 1213.08 731.70 1207.47 730.50 Z" />
<path fill="#ffffff" opacity="1.00" d=" M 1207.40 717.01 C 1213.09 718.43 1218.77 719.89 1224.49 721.24 C 1224.55 724.34 1224.76 727.49 1224.08 730.55 C 1223.60 730.50 1222.62 730.39 1222.13 730.33 C 1217.35 729.07 1212.43 728.50 1207.69 727.18 C 1207.01 724.99 1207.40 722.60 1207.33 720.34 C 1207.35 719.51 1207.38 717.84 1207.40 717.01 Z" />
<path fill="#2852c9" opacity="1.00" d=" M 539.19 718.60 C 545.10 718.66 551.01 718.68 556.91 718.56 C 557.14 721.69 557.23 724.82 557.11 727.97 C 551.09 727.98 545.08 727.92 539.07 727.94 C 539.01 724.82 539.08 721.70 539.19 718.60 M 539.92 719.60 C 539.87 722.08 539.85 724.57 539.86 727.07 C 545.29 727.02 550.72 727.07 556.16 727.05 C 556.16 724.57 556.17 722.09 556.17 719.62 C 550.75 719.61 545.33 719.60 539.92 719.60 Z" />
<path fill="#2347ae" opacity="1.00" d=" M 562.22 718.60 C 568.24 718.70 574.26 718.53 580.27 718.70 C 580.25 721.78 580.24 724.86 580.25 727.95 C 574.18 727.99 568.11 727.98 562.05 727.87 C 561.96 724.77 562.05 721.68 562.22 718.60 M 562.96 719.60 C 562.91 722.07 562.88 724.54 562.89 727.02 C 568.34 727.10 573.79 727.09 579.24 727.08 C 579.24 724.59 579.24 722.11 579.24 719.63 C 573.81 719.63 568.38 719.62 562.96 719.60 Z" />
<path fill="#2246ab" opacity="1.00" d=" M 585.23 718.61 C 591.11 718.62 597.00 718.67 602.88 718.57 C 602.94 721.70 603.02 724.84 602.96 727.98 C 597.03 727.92 591.10 728.01 585.17 727.90 C 585.15 724.80 585.19 721.70 585.23 718.61 M 586.05 719.62 C 586.03 722.09 586.03 724.56 586.06 727.03 C 591.46 727.12 596.87 727.05 602.28 727.09 C 602.28 724.60 602.26 722.11 602.23 719.64 C 596.83 719.61 591.44 719.62 586.05 719.62 Z" />
<path fill="#2246ab" opacity="1.00" d=" M 608.24 718.61 C 614.10 718.62 619.96 718.67 625.82 718.57 C 625.80 721.68 626.04 724.80 626.34 727.90 C 620.27 727.97 614.20 728.01 608.14 727.86 C 608.15 724.77 608.20 721.69 608.24 718.61 M 609.15 719.63 C 609.13 722.05 609.09 724.47 609.01 726.90 C 614.49 727.22 619.97 727.04 625.46 727.05 C 625.39 724.58 625.31 722.12 625.23 719.66 C 619.87 719.58 614.51 719.63 609.15 719.63 Z" />
<path fill="#2449b2" opacity="1.00" d=" M 631.27 718.62 C 637.28 718.63 643.29 718.60 649.30 718.68 C 649.28 721.73 649.30 724.79 649.35 727.86 C 643.30 728.03 637.26 728.02 631.22 727.92 C 631.21 724.82 631.24 721.71 631.27 718.62 M 632.26 719.63 C 632.25 722.10 632.25 724.58 632.25 727.07 C 637.67 727.12 643.08 727.11 648.50 727.04 C 648.51 724.55 648.51 722.06 648.53 719.59 C 643.10 719.62 637.68 719.62 632.26 719.63 Z" />
<path fill="#ffffff" opacity="1.00" d=" M 1152.22 719.34 C 1157.92 720.51 1163.62 721.68 1169.33 722.81 C 1169.44 723.33 1169.65 724.37 1169.76 724.89 C 1163.78 724.63 1158.02 722.72 1152.15 721.73 C 1152.17 721.13 1152.20 719.94 1152.22 719.34 Z" />
<path fill="#ffffff" opacity="1.00" d=" M 539.92 719.60 C 545.33 719.60 550.75 719.61 556.17 719.62 C 556.17 722.09 556.16 724.57 556.16 727.05 C 550.72 727.07 545.29 727.02 539.86 727.07 C 539.85 724.57 539.87 722.08 539.92 719.60 Z" />
<path fill="#ffffff" opacity="1.00" d=" M 562.96 719.60 C 568.38 719.62 573.81 719.63 579.24 719.63 C 579.24 722.11 579.24 724.59 579.24 727.08 C 573.79 727.09 568.34 727.10 562.89 727.02 C 562.88 724.54 562.91 722.07 562.96 719.60 Z" />
<path fill="#ffffff" opacity="1.00" d=" M 586.05 719.62 C 591.44 719.62 596.83 719.61 602.23 719.64 C 602.26 722.11 602.28 724.60 602.28 727.09 C 596.87 727.05 591.46 727.12 586.06 727.03 C 586.03 724.56 586.03 722.09 586.05 719.62 Z" />
<path fill="#ffffff" opacity="1.00" d=" M 609.15 719.63 C 614.51 719.63 619.87 719.58 625.23 719.66 C 625.31 722.12 625.39 724.58 625.46 727.05 C 619.97 727.04 614.49 727.22 609.01 726.90 C 609.09 724.47 609.13 722.05 609.15 719.63 Z" />
<path fill="#ffffff" opacity="1.00" d=" M 632.26 719.63 C 637.68 719.62 643.10 719.62 648.53 719.59 C 648.51 722.06 648.51 724.55 648.50 727.04 C 643.08 727.11 637.67 727.12 632.25 727.07 C 632.25 724.58 632.25 722.10 632.26 719.63 Z" />
<path fill="#ffffff" opacity="1.00" d=" M 1131.27 720.91 C 1134.83 721.45 1138.35 722.23 1141.88 723.00 C 1141.88 733.36 1141.87 743.71 1141.88 754.07 C 1138.34 753.40 1134.80 752.71 1131.30 751.94 C 1131.32 741.59 1131.35 731.25 1131.27 720.91 Z" />
<path fill="#ffffff" opacity="1.00" d=" M 1226.54 721.73 C 1228.58 722.22 1230.64 722.68 1232.71 723.14 C 1232.73 724.59 1232.76 726.06 1232.82 727.53 C 1232.70 737.69 1232.75 747.84 1232.75 758.00 L 1226.78 758.00 C 1226.66 745.91 1226.94 733.81 1226.54 721.73 Z" />
<path fill="#ffffff" opacity="1.00" d=" M 1234.92 723.78 C 1240.62 725.14 1246.31 726.53 1252.01 727.93 C 1252.04 729.72 1252.09 731.52 1252.13 733.33 C 1252.12 734.08 1252.09 735.59 1252.08 736.34 C 1246.40 735.16 1240.72 734.00 1235.04 732.84 L 1234.93 732.11 C 1234.85 729.33 1234.87 726.55 1234.92 723.78 Z" />
<path fill="#2449b2" opacity="1.00" d=" M 1395.21 724.47 L 1395.61 724.64 C 1395.77 725.98 1395.88 727.33 1395.96 728.70 C 1396.20 730.82 1395.30 733.40 1396.90 735.17 C 1398.49 737.25 1400.50 739.09 1401.54 741.56 C 1403.94 746.71 1402.67 752.53 1403.02 758.00 L 1395.12 758.00 C 1395.01 746.82 1395.30 735.65 1395.21 724.47 Z" />
<path fill="#254cb9" opacity="1.00" d=" M 657.55 724.51 C 662.73 725.78 666.58 730.05 667.39 735.31 C 665.12 735.30 662.86 735.29 660.60 735.28 C 659.75 734.11 658.83 733.04 657.77 732.11 C 657.56 729.57 657.53 727.03 657.55 724.51 Z" />
<path fill="#ffffff" opacity="1.00" d=" M 1152.18 725.06 C 1157.95 726.23 1163.72 727.41 1169.49 728.58 C 1169.62 738.39 1169.23 748.20 1169.68 758.00 L 1160.75 758.00 C 1157.89 757.38 1155.06 756.70 1152.20 756.14 C 1152.17 745.78 1152.19 735.42 1152.18 725.06 Z" />
<path fill="#ffffff" opacity="1.00" d=" M 1179.69 724.93 C 1185.43 726.04 1191.15 727.28 1196.90 728.41 C 1196.91 729.02 1196.94 730.24 1196.95 730.85 C 1191.31 729.72 1185.70 728.46 1180.04 727.47 C 1179.95 726.83 1179.78 725.56 1179.69 724.93 Z" />
<path fill="#ffffff" opacity="1.00" d=" M 826.88 739.58 C 835.93 735.08 844.95 730.50 854.04 726.08 C 853.96 727.92 853.92 729.77 853.90 731.63 C 844.96 735.98 836.11 740.51 827.21 744.94 C 824.49 746.18 821.93 748.01 818.94 748.47 C 817.21 747.98 816.53 745.95 817.52 744.50 C 820.43 742.50 823.78 741.25 826.88 739.58 Z" />
<path fill="#ffffff" opacity="1.00" d=" M 858.26 727.34 C 874.51 732.37 890.74 737.45 907.01 742.45 C 908.34 742.92 910.01 743.33 910.22 745.03 C 910.23 746.94 908.20 748.27 906.48 747.46 C 890.38 742.56 874.34 737.50 858.26 732.57 C 858.25 730.82 858.25 729.07 858.26 727.34 Z" />
<path fill="#254bb8" opacity="1.00" d=" M 1232.82 727.53 C 1233.47 729.07 1234.23 730.57 1234.93 732.11 L 1235.04 732.84 C 1240.72 734.00 1246.40 735.16 1252.08 736.34 C 1252.09 735.59 1252.12 734.08 1252.13 733.33 C 1252.77 732.09 1253.47 730.88 1254.14 729.66 C 1254.19 739.10 1254.19 748.55 1254.19 758.00 L 1252.06 758.00 C 1252.05 753.72 1252.04 749.45 1252.05 745.18 C 1246.32 744.06 1240.61 742.93 1234.89 741.81 C 1234.88 747.20 1234.89 752.60 1234.91 758.00 L 1232.75 758.00 C 1232.75 747.84 1232.70 737.69 1232.82 727.53 M 1234.86 736.08 C 1234.92 736.71 1235.04 737.97 1235.10 738.60 C 1240.78 739.66 1246.43 740.89 1252.10 742.03 C 1252.06 741.38 1251.99 740.07 1251.95 739.42 C 1246.24 738.33 1240.55 737.19 1234.86 736.08 Z" />
<path fill="#ffffff" opacity="1.00" d=" M 1254.14 729.66 C 1254.20 729.35 1254.34 728.75 1254.40 728.44 C 1256.41 728.88 1258.46 729.33 1260.49 729.78 C 1260.30 739.19 1260.44 748.59 1260.34 758.00 L 1254.19 758.00 C 1254.19 748.55 1254.19 739.10 1254.14 729.66 Z" />
<path fill="#2750c3" opacity="1.00" d=" M 1395.96 728.70 C 1399.01 729.52 1401.93 730.76 1404.62 732.44 C 1404.92 732.08 1405.52 731.35 1405.82 730.99 C 1405.77 739.99 1405.83 749.00 1405.82 758.00 L 1403.02 758.00 C 1402.67 752.53 1403.94 746.71 1401.54 741.56 C 1400.50 739.09 1398.49 737.25 1396.90 735.17 C 1395.30 733.40 1396.20 730.82 1395.96 728.70 Z" />
<path fill="#ffffff" opacity="1.00" d=" M 1207.47 730.50 C 1213.08 731.70 1218.77 732.61 1224.37 733.90 C 1224.45 734.54 1224.61 735.81 1224.68 736.45 C 1218.86 735.23 1213.01 734.17 1207.23 732.79 C 1207.29 732.22 1207.41 731.07 1207.47 730.50 Z" />
<path fill="#244ab5" opacity="1.00" d=" M 1260.49 729.78 C 1261.05 732.50 1261.55 735.26 1262.67 737.84 C 1262.84 738.26 1263.17 739.11 1263.34 739.53 C 1263.47 740.04 1263.72 741.05 1263.85 741.55 C 1263.35 741.90 1262.37 742.60 1261.88 742.95 C 1262.31 743.33 1263.17 744.09 1263.60 744.48 C 1263.63 745.10 1263.70 746.33 1263.74 746.95 C 1263.41 747.36 1262.77 748.18 1262.44 748.59 C 1262.49 751.72 1262.50 754.86 1262.51 758.00 L 1260.34 758.00 C 1260.44 748.59 1260.30 739.19 1260.49 729.78 Z" />
<path fill="#ffffff" opacity="1.00" d=" M 1179.83 730.66 C 1185.53 731.82 1191.23 732.99 1196.94 734.16 C 1196.94 742.10 1196.93 750.05 1196.94 758.00 L 1179.85 758.00 C 1179.84 748.89 1179.82 739.77 1179.83 730.66 Z" />
<path fill="#2245a8" opacity="1.00" d=" M 530.07 732.47 C 556.04 732.29 582.01 732.41 607.99 732.37 C 624.58 732.19 641.19 732.74 657.77 732.11 C 658.83 733.04 659.75 734.11 660.60 735.28 C 620.78 735.35 580.96 735.29 541.14 735.31 C 541.28 734.73 541.57 733.59 541.72 733.02 C 537.83 732.79 533.96 732.54 530.07 732.47 Z" />
<path fill="#ffffff" opacity="1.00" d=" M 929.41 748.43 C 937.83 744.31 946.15 739.94 954.65 735.96 C 954.63 737.26 954.63 738.57 954.64 739.89 C 946.09 744.01 937.78 748.68 929.06 752.41 C 926.51 752.12 927.27 748.79 929.41 748.43 Z" />
<path fill="#ffffff" opacity="1.00" d=" M 1207.38 736.22 C 1213.10 737.34 1218.83 738.47 1224.56 739.60 C 1224.62 745.73 1224.39 751.87 1224.68 758.00 L 1207.39 758.00 C 1207.38 750.74 1207.37 743.48 1207.38 736.22 Z" />
<path fill="#ffffff" opacity="1.00" d=" M 1234.86 736.08 C 1240.55 737.19 1246.24 738.33 1251.95 739.42 C 1251.99 740.07 1252.06 741.38 1252.10 742.03 C 1246.43 740.89 1240.78 739.66 1235.10 738.60 C 1235.04 737.97 1234.92 736.71 1234.86 736.08 Z" />
<path fill="#ffffff" opacity="1.00" d=" M 691.35 736.94 C 702.75 740.35 714.08 743.97 725.48 747.36 C 727.23 747.84 728.74 748.89 730.28 749.84 C 729.28 750.42 728.51 752.18 727.13 751.62 C 715.16 748.18 703.36 744.15 691.40 740.72 C 691.38 739.45 691.36 738.19 691.35 736.94 Z" />
<path fill="#ffffff" opacity="1.00" d=" M 957.69 736.91 C 970.54 740.96 983.52 744.64 996.29 748.95 C 995.64 749.85 995.61 752.26 993.92 751.67 C 984.66 749.23 975.61 746.01 966.42 743.32 C 963.60 742.41 960.77 741.56 957.93 740.73 C 957.84 739.44 957.76 738.17 957.69 736.91 Z" />
<path fill="#2b57d5" opacity="1.00" d=" M 678.84 744.57 C 681.47 743.24 684.11 741.95 686.76 740.65 C 688.30 740.60 689.84 740.63 691.40 740.72 C 703.36 744.15 715.16 748.18 727.13 751.62 C 728.51 752.18 729.28 750.42 730.28 749.84 C 733.95 751.89 737.60 754.16 739.65 758.00 L 717.64 758.00 C 708.90 755.18 700.15 752.41 691.35 749.82 C 690.30 749.57 689.27 749.33 688.24 749.12 L 687.63 748.98 C 684.71 747.48 681.84 745.87 678.84 744.57 Z" />
<path fill="#ffffff" opacity="1.00" d=" M 1234.89 741.81 C 1240.61 742.93 1246.32 744.06 1252.05 745.18 C 1252.04 749.45 1252.05 753.72 1252.06 758.00 L 1234.91 758.00 C 1234.89 752.60 1234.88 747.20 1234.89 741.81 Z" />
<path fill="#ffffff" opacity="1.00" d=" M 1327.06 742.44 C 1342.00 747.67 1357.14 752.38 1371.94 758.00 L 1335.93 758.00 C 1335.13 755.92 1331.65 754.93 1331.74 758.00 L 1327.06 758.00 C 1327.05 752.81 1327.05 747.63 1327.06 742.44 Z" />
<path fill="#ffffff" opacity="1.00" d=" M 827.99 756.56 C 836.63 752.21 845.29 747.89 853.98 743.62 C 853.98 745.41 853.99 747.22 854.00 749.03 C 848.06 752.00 842.10 754.93 836.21 758.00 L 825.09 758.00 C 826.05 757.52 827.02 757.04 827.99 756.56 Z" />
<path fill="#2b57d5" opacity="1.00" d=" M 942.32 752.73 C 948.96 746.89 957.78 744.35 966.42 743.32 C 975.61 746.01 984.66 749.23 993.92 751.67 C 995.61 752.26 995.64 749.85 996.29 748.95 C 1001.01 750.57 1005.03 753.76 1007.66 758.00 L 983.76 758.00 C 975.15 755.01 966.39 752.50 957.70 749.76 C 957.75 751.05 957.81 752.35 957.88 753.66 C 962.56 755.01 967.19 756.52 971.84 758.00 L 944.40 758.00 C 947.85 756.35 951.21 754.52 954.65 752.84 C 954.62 751.49 954.61 750.15 954.61 748.81 C 950.58 750.68 946.62 752.70 942.67 754.72 C 942.58 754.22 942.41 753.23 942.32 752.73 Z" />
<path fill="#264dbc" opacity="1.00" d=" M 674.05 747.00 C 675.64 746.19 677.23 745.37 678.84 744.57 C 681.84 745.87 684.71 747.48 687.63 748.98 C 683.08 751.25 678.60 753.64 674.03 755.87 C 674.03 752.91 674.04 749.95 674.05 747.00 Z" />
<path fill="#ffffff" opacity="1.00" d=" M 858.26 744.97 C 872.33 749.30 886.40 753.62 900.45 758.00 L 883.68 758.00 C 875.22 755.26 866.67 752.76 858.21 750.01 C 858.22 748.32 858.23 746.64 858.26 744.97 Z" />
<path fill="#2245a8" opacity="1.00" d=" M 612.05 748.57 C 619.80 748.68 627.55 748.59 635.31 748.64 C 635.31 751.75 635.30 754.87 635.31 758.00 L 634.12 758.00 C 634.11 755.25 634.11 752.50 634.12 749.76 C 627.14 749.74 620.17 749.75 613.19 749.75 C 613.18 752.49 613.18 755.24 613.18 758.00 L 611.93 758.00 C 611.87 754.85 611.99 751.71 612.05 748.57 Z" />
<path fill="#2245a8" opacity="1.00" d=" M 641.73 748.64 C 648.86 748.66 656.00 748.50 663.13 748.74 C 656.66 750.85 649.69 749.26 643.01 749.75 C 643.00 752.50 643.00 755.25 643.00 758.00 L 641.22 758.00 C 642.30 755.05 641.61 751.74 641.73 748.64 Z" />
<path fill="#264fc1" opacity="1.00" d=" M 383.89 748.63 C 386.21 748.62 388.54 748.62 390.87 748.63 C 390.88 749.30 390.89 750.64 390.90 751.31 C 389.41 751.32 387.94 751.34 386.47 751.37 C 386.48 753.57 386.49 755.78 386.51 758.00 L 383.88 758.00 C 383.88 754.87 383.88 751.75 383.89 748.63 Z" />
<path fill="#2042a2" opacity="1.00" d=" M 390.87 748.63 C 397.66 748.64 404.45 748.61 411.24 748.63 C 411.25 751.75 411.25 754.87 411.25 758.00 L 408.66 758.00 C 408.64 755.76 408.62 753.54 408.61 751.31 C 402.70 751.32 396.80 751.28 390.90 751.31 C 390.89 750.64 390.88 749.30 390.87 748.63 Z" />
<path fill="#20419f" opacity="1.00" d=" M 414.69 748.63 C 423.87 748.62 433.06 748.62 442.24 748.63 C 442.24 751.75 442.24 754.87 442.25 758.00 L 439.66 758.00 C 439.64 755.76 439.63 753.53 439.61 751.31 C 432.20 751.30 424.79 751.30 417.38 751.31 C 417.37 753.54 417.37 755.76 417.37 758.00 L 414.71 758.00 C 414.69 754.87 414.69 751.75 414.69 748.63 Z" />
<path fill="#2143a4" opacity="1.00" d=" M 445.57 748.63 C 454.75 748.62 463.93 748.62 473.12 748.63 C 473.12 751.74 473.12 754.87 473.12 758.00 L 470.30 758.00 C 470.42 755.79 470.45 753.58 470.55 751.39 C 463.12 751.23 455.68 751.34 448.25 751.32 C 448.25 753.54 448.25 755.76 448.25 758.00 L 445.68 758.00 C 445.54 754.87 445.50 751.75 445.57 748.63 Z" />
<path fill="#2145a7" opacity="1.00" d=" M 476.56 748.62 C 485.75 748.62 494.93 748.62 504.12 748.63 C 504.12 751.75 504.12 754.87 504.12 758.00 L 501.29 758.00 C 501.42 755.79 501.46 753.59 501.56 751.40 C 494.13 751.21 486.69 751.34 479.25 751.31 C 479.25 753.53 479.24 755.76 479.24 758.00 L 476.68 758.00 C 476.53 754.87 476.52 751.74 476.56 748.62 Z" />
<path fill="#2246ab" opacity="1.00" d=" M 522.29 748.67 C 530.11 748.59 537.93 748.64 545.75 748.63 C 545.75 751.75 545.75 754.87 545.76 758.00 L 544.35 758.00 C 544.46 755.25 544.59 752.50 544.50 749.75 C 537.52 749.74 530.54 749.73 523.57 749.76 C 523.56 752.50 523.56 755.25 523.57 758.00 L 522.31 758.00 C 522.31 754.88 522.30 751.77 522.29 748.67 Z" />
<path fill="#2245a8" opacity="1.00" d=" M 552.13 748.63 C 559.92 748.61 567.71 748.66 575.50 748.59 C 575.54 751.72 575.58 754.86 575.57 758.00 L 574.33 758.00 C 574.46 755.25 574.45 752.50 574.45 749.75 C 567.43 749.75 560.40 749.75 553.38 749.76 C 553.37 752.50 553.37 755.25 553.38 758.00 L 552.12 758.00 C 552.11 754.87 552.12 751.74 552.13 748.63 Z" />
<path fill="#2245a8" opacity="1.00" d=" M 582.13 748.63 C 589.90 748.61 597.68 748.64 605.45 748.61 C 605.48 751.73 605.51 754.86 605.50 758.00 L 604.25 758.00 C 604.24 755.25 604.24 752.50 604.24 749.75 C 597.22 749.75 590.21 749.75 583.19 749.75 C 583.18 752.50 583.18 755.25 583.19 758.00 L 582.12 758.00 C 582.11 754.87 582.12 751.75 582.13 748.63 Z" />
<path fill="#2750c4" opacity="1.00" d=" M 688.24 749.12 C 689.27 749.33 690.30 749.57 691.35 749.82 C 691.35 751.07 691.37 752.33 691.39 753.59 C 696.11 755.01 700.80 756.56 705.53 758.00 L 678.17 758.00 C 681.48 756.25 684.78 754.48 688.18 752.89 C 688.19 751.62 688.21 750.36 688.24 749.12 Z" />
<path fill="#ffffff" opacity="1.00" d=" M 942.67 754.72 C 946.62 752.70 950.58 750.68 954.61 748.81 C 954.61 750.15 954.62 751.49 954.65 752.84 C 951.21 754.52 947.85 756.35 944.40 758.00 L 936.16 758.00 C 938.36 756.97 940.50 755.82 942.67 754.72 Z" />
<path fill="#ffffff" opacity="1.00" d=" M 523.57 749.76 C 530.54 749.73 537.52 749.74 544.50 749.75 C 544.59 752.50 544.46 755.25 544.35 758.00 L 523.57 758.00 C 523.56 755.25 523.56 752.50 523.57 749.76 Z" />
<path fill="#ffffff" opacity="1.00" d=" M 553.38 749.76 C 560.40 749.75 567.43 749.75 574.45 749.75 C 574.45 752.50 574.46 755.25 574.33 758.00 L 553.38 758.00 C 553.37 755.25 553.37 752.50 553.38 749.76 Z" />
<path fill="#ffffff" opacity="1.00" d=" M 583.19 749.75 C 590.21 749.75 597.22 749.75 604.24 749.75 C 604.24 752.50 604.24 755.25 604.25 758.00 L 583.19 758.00 C 583.18 755.25 583.18 752.50 583.19 749.75 Z" />
<path fill="#ffffff" opacity="1.00" d=" M 613.19 749.75 C 620.17 749.75 627.14 749.74 634.12 749.76 C 634.11 752.50 634.11 755.25 634.12 758.00 L 613.18 758.00 C 613.18 755.24 613.18 752.49 613.19 749.75 Z" />
<path fill="#ffffff" opacity="1.00" d=" M 691.35 749.82 C 700.15 752.41 708.90 755.18 717.64 758.00 L 705.53 758.00 C 700.80 756.56 696.11 755.01 691.39 753.59 C 691.37 752.33 691.35 751.07 691.35 749.82 Z" />
<path fill="#ffffff" opacity="1.00" d=" M 957.70 749.76 C 966.39 752.50 975.15 755.01 983.76 758.00 L 971.84 758.00 C 967.19 756.52 962.56 755.01 957.88 753.66 C 957.81 752.35 957.75 751.05 957.70 749.76 Z" />
<path fill="#ffffff" opacity="1.00" d=" M 386.47 751.37 C 387.94 751.34 389.41 751.32 390.90 751.31 C 396.80 751.28 402.70 751.32 408.61 751.31 C 408.62 753.54 408.64 755.76 408.66 758.00 L 386.51 758.00 C 386.49 755.78 386.48 753.57 386.47 751.37 Z" />
<path fill="#ffffff" opacity="1.00" d=" M 417.38 751.31 C 424.79 751.30 432.20 751.30 439.61 751.31 C 439.63 753.53 439.64 755.76 439.66 758.00 L 417.37 758.00 C 417.37 755.76 417.37 753.54 417.38 751.31 Z" />
<path fill="#ffffff" opacity="1.00" d=" M 448.25 751.32 C 455.68 751.34 463.12 751.23 470.55 751.39 C 470.45 753.58 470.42 755.79 470.30 758.00 L 448.25 758.00 C 448.25 755.76 448.25 753.54 448.25 751.32 Z" />
<path fill="#ffffff" opacity="1.00" d=" M 479.25 751.31 C 486.69 751.34 494.13 751.21 501.56 751.40 C 501.46 753.59 501.42 755.79 501.29 758.00 L 479.24 758.00 C 479.24 755.76 479.25 753.53 479.25 751.31 Z" />
<path fill="#2245a8" opacity="1.00" d=" M 664.09 752.06 C 664.37 751.87 664.91 751.50 665.19 751.32 C 665.18 753.54 665.18 755.76 665.19 758.00 L 664.04 758.00 C 664.06 756.01 664.08 754.03 664.09 752.06 Z" />
<path fill="#ffffff" opacity="1.00" d=" M 1131.22 755.21 C 1135.14 755.89 1139.04 756.70 1142.82 758.00 L 1131.51 758.00 C 1131.44 757.30 1131.29 755.91 1131.22 755.21 Z" />
<path fill="#b7de7a" opacity="1.00" d=" M 1331.74 758.00 C 1331.65 754.93 1335.13 755.92 1335.93 758.00 L 1331.74 758.00 Z" />
</svg>
