<?xml version="1.0" encoding="UTF-8" ?>
<!DOCTYPE svg PUBLIC "-//W3C//DTD SVG 1.1//EN" "http://www.w3.org/Graphics/SVG/1.1/DTD/svg11.dtd">
<svg width="17pt" height="31pt" viewBox="0 0 17 31" version="1.1" xmlns="http://www.w3.org/2000/svg">
<g id="#868686ff">
<path fill="#868686" opacity="1.00" d=" M 11.23 0.00 L 17.00 0.00 L 17.00 5.89 C 15.36 5.96 13.71 5.96 12.09 6.23 C 10.86 7.48 11.57 9.52 11.31 11.09 C 13.12 11.12 14.93 11.16 16.75 11.19 C 16.81 13.28 16.82 15.37 16.80 17.45 C 14.99 17.49 13.17 17.53 11.36 17.56 C 11.34 22.04 11.38 26.52 11.32 31.00 L 4.81 31.00 C 4.73 26.52 4.77 22.04 4.77 17.57 C 3.18 17.53 1.59 17.48 0.00 17.44 L 0.00 11.24 C 1.58 11.20 3.15 11.15 4.73 11.11 C 4.83 8.40 4.42 5.39 6.03 3.02 C 7.15 1.21 9.25 0.43 11.23 0.00 Z" />
</g>
</svg>
