<?xml version="1.0" encoding="UTF-8" ?>
<!DOCTYPE svg PUBLIC "-//W3C//DTD SVG 1.1//EN" "http://www.w3.org/Graphics/SVG/1.1/DTD/svg11.dtd">
<svg width="25pt" height="27pt" viewBox="0 0 25 27" version="1.1" xmlns="http://www.w3.org/2000/svg">
<g id="#ffffffff">
<path fill="#ffffff" opacity="1.00" d=" M 13.50 0.00 L 16.04 0.00 C 16.78 0.11 18.26 0.34 19.00 0.45 C 18.84 1.47 18.53 3.51 18.38 4.53 C 17.07 4.55 15.76 4.52 14.45 4.42 C 14.29 5.75 14.15 7.07 14.03 8.39 C 15.49 8.40 16.95 8.40 18.41 8.41 C 18.28 9.87 18.16 11.33 18.04 12.80 C 16.73 12.80 15.43 12.80 14.12 12.80 C 14.10 17.54 14.16 22.27 14.05 27.00 L 8.99 27.00 C 8.52 22.28 8.87 17.54 8.76 12.81 C 8.07 12.81 6.69 12.80 6.00 12.80 C 6.00 11.33 6.00 9.87 6.00 8.41 C 6.68 8.40 8.04 8.40 8.72 8.40 C 8.35 4.89 9.15 0.29 13.50 0.00 Z" />
</g>
</svg>
