<?xml version="1.0" encoding="UTF-8" ?>
<!DOCTYPE svg PUBLIC "-//W3C//DTD SVG 1.1//EN" "http://www.w3.org/Graphics/SVG/1.1/DTD/svg11.dtd">
<svg width="40pt" height="31pt" viewBox="0 0 40 31" version="1.1" xmlns="http://www.w3.org/2000/svg">
<g id="#868686ff">
<path fill="#868686" opacity="1.00" d=" M 14.27 0.00 L 16.48 0.00 C 20.10 0.32 23.39 2.01 26.15 4.31 C 25.00 5.57 23.88 6.85 22.74 8.13 C 18.74 4.46 12.03 4.06 8.18 8.17 C 3.28 12.67 4.54 21.51 10.44 24.54 C 15.92 27.83 23.27 24.51 25.26 18.64 C 22.29 18.60 19.33 18.59 16.36 18.60 C 16.36 17.00 16.36 15.41 16.35 13.81 C 21.15 13.80 25.94 13.80 30.73 13.81 C 32.14 22.35 25.00 30.39 16.58 31.00 L 14.33 31.00 C 6.84 30.55 0.52 24.12 0.00 16.67 L 0.00 14.39 C 0.48 6.94 6.78 0.49 14.27 0.00 Z" />
<path fill="#868686" opacity="1.00" d=" M 34.61 10.80 C 35.21 10.80 36.42 10.81 37.02 10.81 C 37.04 11.56 37.08 13.06 37.10 13.81 C 37.82 13.81 39.27 13.81 40.00 13.81 L 40.00 16.33 C 39.28 16.33 37.83 16.32 37.11 16.31 C 37.08 17.05 37.04 18.52 37.01 19.26 C 36.42 19.26 35.22 19.26 34.62 19.27 C 34.61 18.54 34.58 17.08 34.57 16.36 C 33.84 16.34 32.38 16.31 31.65 16.30 C 31.65 15.68 31.65 14.45 31.65 13.83 C 32.39 13.82 33.85 13.79 34.58 13.77 C 34.59 13.03 34.60 11.54 34.61 10.80 Z" />
</g>
</svg>
