<?xml version="1.0" encoding="UTF-8" ?>
<!DOCTYPE svg PUBLIC "-//W3C//DTD SVG 1.1//EN" "http://www.w3.org/Graphics/SVG/1.1/DTD/svg11.dtd">
<svg width="31pt" height="31pt" viewBox="0 0 31 31" version="1.1" xmlns="http://www.w3.org/2000/svg">
<g id="#868686ff">
<path fill="#868686" opacity="1.00" d=" M 7.44 0.00 L 23.28 0.00 C 27.21 0.48 30.30 3.60 31.00 7.46 L 31.00 23.34 C 30.46 27.20 27.43 30.28 23.62 31.00 L 7.67 31.00 C 3.73 30.49 0.62 27.34 0.00 23.44 L 0.00 7.91 C 0.39 3.91 3.52 0.70 7.44 0.00 M 6.31 3.20 C 4.04 4.13 2.62 6.55 2.78 8.99 C 2.77 13.67 2.65 18.37 2.84 23.05 C 2.99 26.07 5.91 28.45 8.88 28.24 C 13.58 28.27 18.28 28.37 22.98 28.19 C 26.05 28.07 28.46 25.09 28.22 22.08 C 28.24 17.38 28.34 12.67 28.16 7.98 C 28.03 4.90 25.02 2.52 22.01 2.75 C 16.79 2.92 11.45 2.20 6.31 3.20 Z" />
<path fill="#868686" opacity="1.00" d=" M 22.48 5.63 C 24.64 3.78 27.34 7.62 24.83 8.96 C 22.75 10.21 20.72 7.17 22.48 5.63 Z" />
<path fill="#868686" opacity="1.00" d=" M 12.32 8.17 C 17.47 5.67 24.04 10.28 23.45 15.96 C 23.42 22.24 15.01 25.94 10.40 21.62 C 5.83 18.15 7.03 10.26 12.32 8.17 M 13.57 10.64 C 9.86 11.92 9.11 17.46 12.35 19.67 C 15.18 22.02 19.97 20.23 20.61 16.62 C 21.66 12.73 17.24 8.96 13.57 10.64 Z" />
</g>
</svg>
