<?xml version="1.0" encoding="UTF-8" ?>
<!DOCTYPE svg PUBLIC "-//W3C//DTD SVG 1.1//EN" "http://www.w3.org/Graphics/SVG/1.1/DTD/svg11.dtd">
<svg width="32pt" height="32pt" viewBox="0 0 32 32" version="1.1" xmlns="http://www.w3.org/2000/svg">
<path fill="#f67f00" opacity="0.96" d=" M 14.21 0.00 L 17.90 0.00 C 25.16 0.88 31.19 6.95 32.00 14.22 L 32.00 17.90 C 31.12 25.10 25.17 31.06 17.98 32.00 L 14.10 32.00 C 6.89 31.12 0.93 25.15 0.00 17.96 L 0.00 14.23 C 0.81 6.91 6.90 0.82 14.21 0.00 M 14.35 2.24 C 8.19 2.93 2.95 8.15 2.25 14.30 C 1.17 21.62 6.96 28.98 14.31 29.75 C 21.91 30.88 29.49 24.57 29.82 16.91 C 30.61 8.60 22.60 1.00 14.35 2.24 Z" />
<path fill="#f67f00" opacity="0.96" d=" M 11.61 9.69 C 13.73 5.87 20.15 6.85 21.00 11.14 C 21.93 14.13 19.53 16.49 17.14 17.78 C 17.04 19.06 16.94 20.34 16.82 21.62 C 14.10 21.01 15.16 18.02 14.87 16.01 C 17.15 15.34 20.46 13.29 18.32 10.61 C 16.06 7.79 13.14 10.79 12.27 13.18 C 9.64 14.61 11.11 10.86 11.61 9.69 Z" />
<path fill="#f67f00" opacity="0.96" d=" M 15.18 22.35 C 16.80 21.83 17.35 22.40 16.81 24.06 C 15.20 24.58 14.66 24.01 15.18 22.35 Z" />
</svg>
