<?xml version="1.0" encoding="UTF-8" ?>
<!DOCTYPE svg PUBLIC "-//W3C//DTD SVG 1.1//EN" "http://www.w3.org/Graphics/SVG/1.1/DTD/svg11.dtd">
<svg width="40pt" height="30pt" viewBox="0 0 40 30" version="1.1" xmlns="http://www.w3.org/2000/svg">
<path fill="#fd8300" opacity="1.00" d=" M 23.61 0.00 L 27.01 0.00 C 33.78 0.83 39.31 6.62 40.00 13.37 L 40.00 16.59 C 39.34 23.30 33.91 29.00 27.24 30.00 L 23.75 30.00 C 18.72 29.39 14.39 26.12 12.01 21.71 C 12.58 21.41 13.73 20.79 14.30 20.49 C 16.45 23.94 19.77 26.93 23.99 27.26 C 30.61 28.20 37.01 22.59 37.36 16.00 C 38.13 9.08 32.05 2.30 25.03 2.66 C 20.45 2.64 16.58 5.70 14.33 9.49 C 13.75 9.19 12.59 8.60 12.01 8.30 C 14.36 3.92 18.63 0.69 23.61 0.00 Z" />
<path fill="#fd8300" opacity="1.00" d=" M 19.27 10.69 C 19.72 10.22 20.63 9.26 21.09 8.79 C 23.13 10.85 25.17 12.91 27.20 15.00 C 25.17 17.09 23.13 19.15 21.08 21.21 C 20.63 20.74 19.73 19.78 19.27 19.30 C 20.22 18.31 21.17 17.31 22.11 16.32 C 14.74 16.31 7.37 16.32 0.00 16.32 L 0.00 13.68 C 7.37 13.68 14.74 13.69 22.11 13.68 C 21.17 12.68 20.22 11.69 19.27 10.69 Z" />
</svg>
