<?xml version="1.0" encoding="UTF-8" ?>
<!DOCTYPE svg PUBLIC "-//W3C//DTD SVG 1.1//EN" "http://www.w3.org/Graphics/SVG/1.1/DTD/svg11.dtd">
<svg width="25pt" height="27pt" viewBox="0 0 25 27" version="1.1" xmlns="http://www.w3.org/2000/svg">
<g id="#ffffffff">
<path fill="#ffffff" opacity="1.00" d=" M 7.56 1.69 C 11.24 -1.32 17.66 0.47 18.85 5.18 C 20.81 10.54 14.42 15.85 9.38 13.46 C 4.40 11.90 3.46 4.74 7.56 1.69 M 9.70 9.35 C 11.25 9.64 12.82 9.63 14.36 9.37 C 15.09 7.39 14.79 4.00 11.95 4.37 C 9.16 4.20 9.01 7.40 9.70 9.35 Z" />
<path fill="#ffffff" opacity="1.00" d=" M 4.65 14.67 C 7.10 13.22 9.38 16.17 11.98 15.69 C 14.63 16.14 17.03 13.00 19.51 14.59 C 21.31 17.62 17.15 18.76 15.16 19.78 C 17.05 21.47 20.88 23.18 19.24 26.29 C 16.07 27.75 14.35 23.97 12.14 22.41 C 10.42 24.62 6.82 29.25 4.58 25.04 C 5.49 22.81 7.48 21.35 9.19 19.77 C 7.03 18.97 2.72 17.85 4.65 14.67 Z" />
</g>
</svg>
