<?xml version="1.0" encoding="UTF-8" ?>
<!DOCTYPE svg PUBLIC "-//W3C//DTD SVG 1.1//EN" "http://www.w3.org/Graphics/SVG/1.1/DTD/svg11.dtd">
<svg width="909pt" height="313pt" viewBox="0 0 909 313" version="1.1" xmlns="http://www.w3.org/2000/svg">
<path fill="#ffffff" opacity="1.00" d=" M 767.02 9.17 C 785.37 6.72 803.92 8.83 822.13 11.40 C 835.86 13.54 849.61 16.26 862.66 21.18 C 868.46 23.34 873.92 26.48 878.46 30.74 C 879.78 32.30 881.02 34.33 880.29 36.46 C 878.53 42.28 873.96 46.65 869.56 50.60 C 860.57 58.71 850.17 65.01 840.71 72.53 C 842.53 75.31 845.78 78.60 844.29 82.15 C 837.16 88.90 828.18 93.32 819.70 98.12 C 819.83 99.40 819.97 100.67 820.12 101.94 C 827.27 101.90 831.57 110.97 827.81 116.72 C 824.57 121.13 818.62 119.75 813.96 120.87 C 807.37 120.52 803.66 110.94 808.00 106.01 C 809.53 103.86 812.34 103.67 814.71 103.11 C 814.70 102.49 814.68 101.25 814.67 100.62 C 808.89 103.19 803.28 106.52 796.99 107.62 C 792.93 107.54 791.60 103.04 790.23 99.99 C 748.52 115.74 705.92 129.11 664.46 145.54 C 666.74 152.35 667.83 159.55 667.32 166.72 C 643.36 179.66 617.74 189.11 592.01 197.82 C 588.39 199.52 586.65 195.33 584.28 193.59 C 580.01 191.98 575.31 193.17 570.97 193.85 C 566.54 191.35 565.39 186.13 563.76 181.72 C 543.71 189.29 523.42 196.22 503.23 203.41 C 504.45 206.73 504.89 210.26 504.44 213.77 C 512.11 213.24 518.50 220.58 518.01 228.01 C 518.32 234.90 511.91 241.12 505.05 240.66 C 500.65 239.88 496.45 243.28 492.13 241.41 C 484.19 238.07 481.03 226.91 485.85 219.82 C 488.35 216.49 492.72 215.75 496.57 215.12 C 496.71 212.04 495.54 209.23 493.37 207.06 C 481.53 211.33 469.78 215.87 457.81 219.77 C 458.07 221.95 458.33 224.15 458.55 226.34 C 468.98 225.63 474.80 238.82 470.02 247.12 C 467.66 250.69 463.28 252.80 459.02 252.52 C 454.38 251.93 449.76 255.11 445.28 252.68 C 443.71 251.62 442.26 250.36 441.18 248.80 C 437.70 243.95 436.89 236.80 440.85 231.98 C 443.12 228.77 447.30 228.39 450.88 228.00 C 450.65 226.16 450.39 224.33 450.07 222.50 C 428.66 229.89 407.41 237.75 385.97 245.03 C 347.71 257.99 308.29 267.97 268.12 272.69 C 242.15 275.89 216.07 278.14 189.98 280.10 C 166.02 281.77 142.04 283.24 118.02 283.48 C 108.23 283.54 98.42 283.45 88.67 282.52 C 105.14 280.91 121.13 276.36 137.00 271.84 C 173.72 261.03 209.78 248.14 246.05 235.93 C 291.31 220.17 336.56 204.41 381.82 188.66 C 429.15 172.47 475.96 154.84 523.20 138.40 C 563.35 123.80 603.77 109.96 644.16 96.04 C 679.86 83.87 715.33 71.03 751.20 59.36 C 779.71 49.89 808.34 40.81 836.93 31.60 C 811.80 32.59 786.78 36.19 762.37 42.21 C 723.08 53.72 684.23 66.64 645.41 79.60 C 603.16 93.84 560.99 108.33 518.93 123.14 C 462.01 142.97 405.53 164.08 348.50 183.64 C 314.84 195.15 281.46 207.49 247.61 218.46 C 212.61 230.18 177.81 242.46 142.70 253.84 C 127.55 259.04 112.54 264.75 97.01 268.76 C 90.81 270.31 84.50 271.65 78.09 271.75 C 77.67 271.75 76.84 271.77 76.42 271.77 C 72.70 267.15 69.20 261.93 68.80 255.83 C 75.58 250.22 84.88 249.20 91.65 243.61 C 88.27 235.59 83.80 228.10 79.31 220.66 C 60.83 190.69 40.05 162.21 21.87 132.05 C 16.11 122.28 10.32 112.41 6.57 101.65 C 15.50 96.24 25.93 94.50 36.00 92.46 C 37.70 91.84 39.31 92.79 40.85 93.38 C 49.37 97.07 57.25 102.05 65.03 107.07 C 91.96 124.76 117.46 144.71 145.80 160.18 C 157.15 166.16 168.94 172.04 181.85 173.53 C 209.25 179.35 237.30 175.85 265.00 175.04 C 270.79 175.11 276.33 173.26 281.90 171.90 C 320.27 161.58 357.42 147.33 394.60 133.42 C 424.43 122.22 454.15 110.70 484.22 100.14 C 522.13 87.08 560.13 74.26 598.07 61.31 C 640.20 46.98 682.37 32.75 724.87 19.59 C 738.70 15.33 752.54 10.58 767.02 9.17 M 797.01 14.26 C 796.92 15.31 796.91 16.37 796.96 17.43 L 797.14 17.43 C 798.52 20.89 800.65 24.06 803.48 26.50 C 807.41 30.18 813.05 27.57 817.79 27.67 C 826.23 27.01 834.68 26.31 843.08 25.12 C 845.48 24.73 848.05 24.68 850.20 23.37 C 844.83 19.66 838.22 18.56 832.01 16.98 C 820.54 14.63 808.72 12.77 797.01 14.26 M 815.26 119.23 C 812.96 117.65 810.38 115.90 809.85 112.94 C 808.88 110.00 810.40 107.22 812.01 104.86 C 805.52 108.02 808.13 118.98 815.26 119.23 M 497.35 237.99 C 493.08 236.46 489.64 232.76 489.13 228.16 C 488.34 224.27 490.17 220.50 492.91 217.84 C 482.65 220.98 486.80 239.35 497.35 237.99 M 442.78 233.57 C 438.67 240.29 443.10 251.35 451.69 251.13 C 448.89 249.47 445.78 247.80 444.48 244.63 C 442.04 239.96 443.12 234.03 447.07 230.54 C 445.56 231.41 443.79 232.07 442.78 233.57 Z" />
<path fill="#000000" opacity="0.22" d=" M 797.14 17.43 C 799.98 17.44 802.90 17.30 805.66 18.16 C 810.63 19.78 816.37 22.01 817.79 27.67 C 813.05 27.57 807.41 30.18 803.48 26.50 C 800.65 24.06 798.52 20.89 797.14 17.43 Z" />
<path fill="#000000" opacity="0.22" d=" M 878.46 30.74 C 880.85 30.15 882.74 32.26 884.52 33.51 C 887.81 36.50 891.84 39.66 892.43 44.38 C 892.66 47.69 892.86 51.25 891.19 54.26 C 888.15 60.52 882.92 65.27 877.63 69.62 C 873.14 73.12 868.17 76.11 864.37 80.42 C 859.54 85.96 857.98 93.55 853.14 99.07 C 849.70 103.03 845.11 106.08 842.78 110.91 C 840.45 115.06 842.08 119.93 841.30 124.39 C 840.00 128.24 837.31 132.09 833.14 133.09 C 827.63 134.25 821.39 133.78 817.02 129.87 C 812.03 125.50 806.64 121.14 800.01 119.65 C 795.39 118.92 790.65 119.67 786.28 121.22 C 756.64 131.40 727.12 141.90 697.67 152.63 C 692.82 154.32 688.07 156.83 684.71 160.79 C 682.23 165.89 681.84 171.69 679.90 176.98 C 677.71 181.81 673.12 185.05 668.53 187.39 C 656.07 193.75 642.99 198.73 629.98 203.81 C 621.01 207.17 611.88 211.51 602.04 210.55 C 595.45 211.19 589.14 208.99 582.97 207.03 C 578.63 205.21 574.52 202.69 569.79 202.01 C 565.14 200.82 560.58 202.81 556.19 204.09 C 547.65 207.06 539.01 209.83 530.81 213.68 C 528.19 215.19 525.66 217.90 525.44 221.02 C 526.60 226.53 531.00 231.14 530.59 237.03 C 531.09 241.85 529.62 246.79 526.19 250.26 C 520.26 255.70 511.58 256.64 504.01 254.90 C 498.81 253.40 494.52 250.07 489.98 247.30 C 486.69 249.99 485.88 254.32 483.61 257.72 C 480.66 262.45 475.63 266.02 470.02 266.60 C 464.14 267.76 457.32 267.41 452.47 263.55 C 449.30 260.54 446.75 256.80 445.28 252.68 C 449.76 255.11 454.38 251.93 459.02 252.52 C 463.28 252.80 467.66 250.69 470.02 247.12 C 474.80 238.82 468.98 225.63 458.55 226.34 C 458.33 224.15 458.07 221.95 457.81 219.77 C 469.78 215.87 481.53 211.33 493.37 207.06 C 495.54 209.23 496.71 212.04 496.57 215.12 C 492.72 215.75 488.35 216.49 485.85 219.82 C 481.03 226.91 484.19 238.07 492.13 241.41 C 496.45 243.28 500.65 239.88 505.05 240.66 C 511.91 241.12 518.32 234.90 518.01 228.01 C 518.50 220.58 512.11 213.24 504.44 213.77 C 504.89 210.26 504.45 206.73 503.23 203.41 C 523.42 196.22 543.71 189.29 563.76 181.72 C 565.39 186.13 566.54 191.35 570.97 193.85 C 575.31 193.17 580.01 191.98 584.28 193.59 C 586.65 195.33 588.39 199.52 592.01 197.82 C 617.74 189.11 643.36 179.66 667.32 166.72 C 667.83 159.55 666.74 152.35 664.46 145.54 C 705.92 129.11 748.52 115.74 790.23 99.99 C 791.60 103.04 792.93 107.54 796.99 107.62 C 803.28 106.52 808.89 103.19 814.67 100.62 C 814.68 101.25 814.70 102.49 814.71 103.11 C 812.34 103.67 809.53 103.86 808.00 106.01 C 803.66 110.94 807.37 120.52 813.96 120.87 C 818.62 119.75 824.57 121.13 827.81 116.72 C 831.57 110.97 827.27 101.90 820.12 101.94 C 819.97 100.67 819.83 99.40 819.70 98.12 C 828.18 93.32 837.16 88.90 844.29 82.15 C 845.78 78.60 842.53 75.31 840.71 72.53 C 850.17 65.01 860.57 58.71 869.56 50.60 C 873.96 46.65 878.53 42.28 880.29 36.46 C 881.02 34.33 879.78 32.30 878.46 30.74 Z" />
<path fill="#000000" opacity="0.22" d=" M 762.37 42.21 C 786.78 36.19 811.80 32.59 836.93 31.60 C 808.34 40.81 779.71 49.89 751.20 59.36 C 715.33 71.03 679.86 83.87 644.16 96.04 C 603.77 109.96 563.35 123.80 523.20 138.40 C 475.96 154.84 429.15 172.47 381.82 188.66 C 336.56 204.41 291.31 220.17 246.05 235.93 C 209.78 248.14 173.72 261.03 137.00 271.84 C 121.13 276.36 105.14 280.91 88.67 282.52 C 98.42 283.45 108.23 283.54 118.02 283.48 C 142.04 283.24 166.02 281.77 189.98 280.10 C 216.07 278.14 242.15 275.89 268.12 272.69 C 308.29 267.97 347.71 257.99 385.97 245.03 C 407.41 237.75 428.66 229.89 450.07 222.50 C 450.39 224.33 450.65 226.16 450.88 228.00 C 447.30 228.39 443.12 228.77 440.85 231.98 C 436.89 236.80 437.70 243.95 441.18 248.80 C 439.16 248.30 437.12 247.37 435.01 247.65 C 404.30 258.35 373.63 269.54 341.83 276.61 C 332.23 279.34 322.37 281.03 312.64 283.24 C 306.31 283.87 300.11 285.26 293.86 286.34 C 284.75 285.96 276.12 289.88 267.02 289.47 C 260.61 289.34 254.39 291.29 248.00 291.46 C 244.63 291.52 241.35 292.49 237.98 292.47 C 228.90 292.25 220.03 294.92 210.94 294.55 C 205.66 295.58 200.30 295.40 194.95 295.59 C 188.36 296.98 181.58 295.96 174.99 297.37 C 162.99 297.64 150.97 297.43 138.96 297.50 C 134.64 297.59 130.52 296.08 126.35 295.20 C 122.43 294.40 119.60 291.36 116.05 289.79 C 112.37 289.00 108.69 288.18 104.97 287.62 C 100.21 287.41 95.43 287.16 90.78 286.07 C 84.37 284.00 79.07 278.55 78.09 271.75 C 84.50 271.65 90.81 270.31 97.01 268.76 C 112.54 264.75 127.55 259.04 142.70 253.84 C 177.81 242.46 212.61 230.18 247.61 218.46 C 281.46 207.49 314.84 195.15 348.50 183.64 C 405.53 164.08 462.01 142.97 518.93 123.14 C 560.99 108.33 603.16 93.84 645.41 79.60 C 684.23 66.64 723.08 53.72 762.37 42.21 M 718.95 55.96 C 717.49 56.35 715.56 57.17 715.73 59.00 C 716.32 62.12 716.65 65.42 718.06 68.28 C 720.65 69.54 725.98 67.58 724.59 63.93 C 723.68 60.80 724.07 53.80 718.95 55.96 M 703.08 61.15 C 700.66 61.40 698.74 63.62 699.92 66.04 C 700.92 68.61 700.21 72.66 703.08 74.02 C 705.15 73.69 708.13 73.36 708.70 70.91 C 708.38 67.91 707.65 64.95 706.84 62.04 C 706.41 60.26 704.33 60.73 703.08 61.15 M 688.16 66.10 C 686.47 66.60 683.98 66.86 683.66 68.99 C 684.01 72.07 684.70 75.14 685.62 78.10 C 686.96 80.46 690.10 78.48 691.92 77.73 C 693.55 75.73 691.82 73.08 691.67 70.86 C 691.13 68.96 691.09 65.27 688.16 66.10 M 671.23 72.22 C 669.57 72.68 667.35 73.13 667.02 75.14 C 667.48 78.37 667.95 81.71 669.28 84.70 C 671.35 85.93 675.69 84.68 676.10 81.92 C 675.74 79.05 675.05 76.23 674.28 73.45 C 673.94 72.21 672.33 71.77 671.23 72.22 M 654.13 78.05 C 652.69 78.42 651.03 79.17 651.05 80.91 C 651.53 84.03 652.09 87.19 653.17 90.17 C 655.20 91.76 659.13 90.28 660.07 87.96 C 659.67 84.88 659.02 81.81 658.08 78.85 C 657.54 77.03 655.42 77.58 654.13 78.05 M 639.15 83.12 C 637.15 83.54 633.96 84.17 634.32 86.87 C 634.80 89.82 635.35 92.80 636.37 95.63 C 638.54 97.07 642.78 95.71 643.38 93.03 C 642.96 90.34 642.26 87.70 641.57 85.07 C 641.43 83.95 640.37 82.70 639.15 83.12 M 617.90 91.93 C 618.31 95.10 619.25 98.16 619.88 101.29 C 622.61 102.48 627.88 100.98 626.83 97.20 C 626.01 94.35 626.27 90.74 624.03 88.59 C 621.75 88.40 618.13 89.08 617.90 91.93 M 605.12 94.19 C 603.49 94.61 601.37 95.14 601.12 97.12 C 601.56 100.36 602.13 103.66 603.36 106.71 C 605.26 108.14 607.68 106.53 609.48 105.63 C 611.09 103.32 609.31 100.46 609.04 97.95 C 608.88 95.92 607.67 93.03 605.12 94.19 M 587.15 100.92 C 585.74 101.30 583.85 102.08 584.11 103.89 C 584.53 106.96 585.12 110.05 586.22 112.96 C 588.17 114.45 591.88 113.16 593.06 111.03 C 592.78 107.96 592.03 104.94 591.19 101.99 C 590.90 99.88 588.51 100.39 587.15 100.92 M 572.14 106.16 C 570.54 106.59 568.39 106.98 568.03 108.92 C 568.62 112.17 569.06 115.52 570.34 118.58 C 572.16 119.97 574.70 118.45 576.43 117.54 C 577.82 115.18 576.16 112.39 575.93 109.92 C 575.70 107.97 574.75 104.88 572.14 106.16 M 555.04 112.01 C 553.53 112.40 551.81 113.13 551.71 114.94 C 552.20 118.03 552.77 121.16 553.83 124.12 C 555.94 125.56 559.83 124.32 560.81 121.91 C 560.53 118.92 559.80 115.97 558.98 113.09 C 558.72 111.12 556.34 111.52 555.04 112.01 M 538.03 117.95 C 536.58 118.36 534.76 119.11 534.82 120.92 C 535.31 124.00 535.89 127.10 536.94 130.04 C 538.70 131.57 541.39 130.11 543.14 129.16 C 544.89 126.40 542.71 122.98 542.42 120.03 C 542.29 117.76 539.89 116.91 538.03 117.95 M 520.14 124.20 C 518.96 124.53 517.97 125.71 518.23 126.98 C 518.68 129.98 519.29 132.99 520.32 135.85 C 522.66 137.53 528.15 135.57 527.10 132.08 C 526.49 129.30 526.16 126.41 525.04 123.79 C 523.50 122.74 521.66 123.68 520.14 124.20 M 504.07 129.95 C 502.74 130.27 501.42 131.42 501.70 132.93 C 502.29 135.99 502.62 139.24 504.00 142.06 C 506.56 143.39 511.68 141.52 510.59 137.97 C 510.06 135.30 509.56 132.60 508.66 130.02 C 507.40 128.58 505.53 129.50 504.07 129.95 M 487.32 136.54 C 486.15 136.87 485.00 137.62 484.87 138.95 C 485.22 141.72 485.86 144.46 486.58 147.17 C 487.26 150.55 492.16 148.63 493.54 146.88 C 494.10 143.61 492.72 140.22 491.93 137.04 C 491.20 134.99 488.77 136.11 487.32 136.54 M 469.17 143.11 C 467.37 143.44 465.13 144.82 465.88 146.98 C 466.72 149.81 466.55 153.28 468.41 155.66 C 470.65 156.26 474.07 155.39 474.85 152.91 C 474.52 149.91 473.85 146.94 472.98 144.06 C 472.62 142.32 470.39 142.63 469.17 143.11 M 451.45 149.74 C 449.46 150.02 447.79 151.90 448.73 153.93 C 449.77 156.74 449.12 160.80 451.87 162.63 C 454.00 162.24 457.49 161.88 457.49 159.01 C 457.05 156.07 456.44 153.14 455.54 150.31 C 454.80 148.66 452.75 149.33 451.45 149.74 M 433.17 156.08 C 431.75 156.46 430.25 157.26 430.26 158.96 C 430.69 162.01 431.37 165.03 432.29 167.97 C 434.26 169.62 438.30 168.28 439.29 165.95 C 439.11 162.77 438.14 159.64 437.24 156.59 C 436.49 154.83 434.50 155.72 433.17 156.08 M 416.53 161.52 C 414.83 161.97 412.10 162.57 412.42 164.91 C 412.84 167.91 413.47 170.90 414.42 173.78 C 416.40 175.43 420.10 174.02 421.34 171.99 C 421.20 168.94 420.30 165.98 419.57 163.03 C 419.45 161.56 417.76 160.94 416.53 161.52 M 397.40 168.54 C 396.08 168.96 394.38 169.46 394.25 171.11 C 394.55 174.35 395.27 177.58 396.34 180.65 C 398.30 182.03 401.59 180.80 402.94 179.05 C 403.35 175.82 401.97 172.56 401.31 169.41 C 400.81 167.62 398.73 168.02 397.40 168.54 M 376.44 175.66 C 374.10 176.99 375.58 180.04 375.88 182.11 C 376.56 183.94 376.27 186.51 378.06 187.71 C 380.18 187.73 383.24 187.30 384.04 184.96 C 383.74 181.87 383.05 178.80 382.15 175.84 C 381.19 173.36 378.15 175.12 376.44 175.66 M 357.42 182.53 C 355.74 182.95 353.15 183.67 353.55 185.94 C 353.99 188.91 354.61 191.87 355.55 194.73 C 357.24 196.73 359.93 194.82 361.82 194.02 C 363.37 191.24 361.35 187.92 360.98 184.97 C 360.97 183.10 359.21 181.63 357.42 182.53 M 336.23 190.19 C 334.47 190.66 332.05 190.85 331.51 192.94 C 331.72 196.20 332.58 199.40 333.51 202.53 C 335.19 204.62 338.00 202.71 339.84 201.74 C 341.22 199.49 339.62 196.84 339.37 194.47 C 338.93 192.79 338.70 189.67 336.23 190.19 M 311.78 198.88 C 310.35 201.06 311.95 203.75 312.18 206.09 C 312.74 207.68 312.55 210.62 314.96 210.53 C 316.87 210.04 320.19 209.71 320.04 207.03 C 319.65 203.88 318.71 200.83 318.10 197.72 C 315.96 197.01 313.58 197.62 311.78 198.88 Z" />
<path fill="#ffffff" opacity="1.00" d=" M 718.95 55.96 C 724.07 53.80 723.68 60.80 724.59 63.93 C 725.98 67.58 720.65 69.54 718.06 68.28 C 716.65 65.42 716.32 62.12 715.73 59.00 C 715.56 57.17 717.49 56.35 718.95 55.96 Z" />
<path fill="#ffffff" opacity="1.00" d=" M 703.08 61.15 C 704.33 60.73 706.41 60.26 706.84 62.04 C 707.65 64.95 708.38 67.91 708.70 70.91 C 708.13 73.36 705.15 73.69 703.08 74.02 C 700.21 72.66 700.92 68.61 699.92 66.04 C 698.74 63.62 700.66 61.40 703.08 61.15 Z" />
<path fill="#ffffff" opacity="1.00" d=" M 688.16 66.10 C 691.09 65.27 691.13 68.96 691.67 70.86 C 691.82 73.08 693.55 75.73 691.92 77.73 C 690.10 78.48 686.96 80.46 685.62 78.10 C 684.70 75.14 684.01 72.07 683.66 68.99 C 683.98 66.86 686.47 66.60 688.16 66.10 Z" />
<path fill="#ffffff" opacity="1.00" d=" M 671.23 72.22 C 672.33 71.77 673.94 72.21 674.28 73.45 C 675.05 76.23 675.74 79.05 676.10 81.92 C 675.69 84.68 671.35 85.93 669.28 84.70 C 667.95 81.71 667.48 78.37 667.02 75.14 C 667.35 73.13 669.57 72.68 671.23 72.22 Z" />
<path fill="#ffffff" opacity="1.00" d=" M 654.13 78.05 C 655.42 77.58 657.54 77.03 658.08 78.85 C 659.02 81.81 659.67 84.88 660.07 87.96 C 659.13 90.28 655.20 91.76 653.17 90.17 C 652.09 87.19 651.53 84.03 651.05 80.91 C 651.03 79.17 652.69 78.42 654.13 78.05 Z" />
<path fill="#ffffff" opacity="1.00" d=" M 639.15 83.12 C 640.37 82.70 641.43 83.95 641.57 85.07 C 642.26 87.70 642.96 90.34 643.38 93.03 C 642.78 95.71 638.54 97.07 636.37 95.63 C 635.35 92.80 634.80 89.82 634.32 86.87 C 633.96 84.17 637.15 83.54 639.15 83.12 Z" />
<path fill="#ffffff" opacity="1.00" d=" M 617.90 91.93 C 618.13 89.08 621.75 88.40 624.03 88.59 C 626.27 90.74 626.01 94.35 626.83 97.20 C 627.88 100.98 622.61 102.48 619.88 101.29 C 619.25 98.16 618.31 95.10 617.90 91.93 Z" />
<path fill="#ffffff" opacity="1.00" d=" M 605.12 94.19 C 607.67 93.03 608.88 95.92 609.04 97.95 C 609.31 100.46 611.09 103.32 609.48 105.63 C 607.68 106.53 605.26 108.14 603.36 106.71 C 602.13 103.66 601.56 100.36 601.12 97.12 C 601.37 95.14 603.49 94.61 605.12 94.19 Z" />
<path fill="#ffffff" opacity="1.00" d=" M 587.15 100.92 C 588.51 100.39 590.90 99.88 591.19 101.99 C 592.03 104.94 592.78 107.96 593.06 111.03 C 591.88 113.16 588.17 114.45 586.22 112.96 C 585.12 110.05 584.53 106.96 584.11 103.89 C 583.85 102.08 585.74 101.30 587.15 100.92 Z" />
<path fill="#000000" opacity="0.22" d=" M 815.26 119.23 C 808.13 118.98 805.52 108.02 812.01 104.86 C 810.40 107.22 808.88 110.00 809.85 112.94 C 810.38 115.90 812.96 117.65 815.26 119.23 Z" />
<path fill="#ffffff" opacity="1.00" d=" M 572.14 106.16 C 574.75 104.88 575.70 107.97 575.93 109.92 C 576.16 112.39 577.82 115.18 576.43 117.54 C 574.70 118.45 572.16 119.97 570.34 118.58 C 569.06 115.52 568.62 112.17 568.03 108.92 C 568.39 106.98 570.54 106.59 572.14 106.16 Z" />
<path fill="#ffffff" opacity="1.00" d=" M 555.04 112.01 C 556.34 111.52 558.72 111.12 558.98 113.09 C 559.80 115.97 560.53 118.92 560.81 121.91 C 559.83 124.32 555.94 125.56 553.83 124.12 C 552.77 121.16 552.20 118.03 551.71 114.94 C 551.81 113.13 553.53 112.40 555.04 112.01 Z" />
<path fill="#ffffff" opacity="1.00" d=" M 538.03 117.95 C 539.89 116.91 542.29 117.76 542.42 120.03 C 542.71 122.98 544.89 126.40 543.14 129.16 C 541.39 130.11 538.70 131.57 536.94 130.04 C 535.89 127.10 535.31 124.00 534.82 120.92 C 534.76 119.11 536.58 118.36 538.03 117.95 Z" />
<path fill="#ffffff" opacity="1.00" d=" M 520.14 124.20 C 521.66 123.68 523.50 122.74 525.04 123.79 C 526.16 126.41 526.49 129.30 527.10 132.08 C 528.15 135.57 522.66 137.53 520.32 135.85 C 519.29 132.99 518.68 129.98 518.23 126.98 C 517.97 125.71 518.96 124.53 520.14 124.20 Z" />
<path fill="#ffffff" opacity="1.00" d=" M 504.07 129.95 C 505.53 129.50 507.40 128.58 508.66 130.02 C 509.56 132.60 510.06 135.30 510.59 137.97 C 511.68 141.52 506.56 143.39 504.00 142.06 C 502.62 139.24 502.29 135.99 501.70 132.93 C 501.42 131.42 502.74 130.27 504.07 129.95 Z" />
<path fill="#ffffff" opacity="1.00" d=" M 487.32 136.54 C 488.77 136.11 491.20 134.99 491.93 137.04 C 492.72 140.22 494.10 143.61 493.54 146.88 C 492.16 148.63 487.26 150.55 486.58 147.17 C 485.86 144.46 485.22 141.72 484.87 138.95 C 485.00 137.62 486.15 136.87 487.32 136.54 Z" />
<path fill="#ffffff" opacity="1.00" d=" M 469.17 143.11 C 470.39 142.63 472.62 142.32 472.98 144.06 C 473.85 146.94 474.52 149.91 474.85 152.91 C 474.07 155.39 470.65 156.26 468.41 155.66 C 466.55 153.28 466.72 149.81 465.88 146.98 C 465.13 144.82 467.37 143.44 469.17 143.11 Z" />
<path fill="#ffffff" opacity="1.00" d=" M 451.45 149.74 C 452.75 149.33 454.80 148.66 455.54 150.31 C 456.44 153.14 457.05 156.07 457.49 159.01 C 457.49 161.88 454.00 162.24 451.87 162.63 C 449.12 160.80 449.77 156.74 448.73 153.93 C 447.79 151.90 449.46 150.02 451.45 149.74 Z" />
<path fill="#ffffff" opacity="1.00" d=" M 433.17 156.08 C 434.50 155.72 436.49 154.83 437.24 156.59 C 438.14 159.64 439.11 162.77 439.29 165.95 C 438.30 168.28 434.26 169.62 432.29 167.97 C 431.37 165.03 430.69 162.01 430.26 158.96 C 430.25 157.26 431.75 156.46 433.17 156.08 Z" />
<path fill="#ffffff" opacity="1.00" d=" M 416.53 161.52 C 417.76 160.94 419.45 161.56 419.57 163.03 C 420.30 165.98 421.20 168.94 421.34 171.99 C 420.10 174.02 416.40 175.43 414.42 173.78 C 413.47 170.90 412.84 167.91 412.42 164.91 C 412.10 162.57 414.83 161.97 416.53 161.52 Z" />
<path fill="#ffffff" opacity="1.00" d=" M 397.40 168.54 C 398.73 168.02 400.81 167.62 401.31 169.41 C 401.97 172.56 403.35 175.82 402.94 179.05 C 401.59 180.80 398.30 182.03 396.34 180.65 C 395.27 177.58 394.55 174.35 394.25 171.11 C 394.38 169.46 396.08 168.96 397.40 168.54 Z" />
<path fill="#ffffff" opacity="1.00" d=" M 376.44 175.66 C 378.15 175.12 381.19 173.36 382.15 175.84 C 383.05 178.80 383.74 181.87 384.04 184.96 C 383.24 187.30 380.18 187.73 378.06 187.71 C 376.27 186.51 376.56 183.94 375.88 182.11 C 375.58 180.04 374.10 176.99 376.44 175.66 Z" />
<path fill="#ffffff" opacity="1.00" d=" M 357.42 182.53 C 359.21 181.63 360.97 183.10 360.98 184.97 C 361.35 187.92 363.37 191.24 361.82 194.02 C 359.93 194.82 357.24 196.73 355.55 194.73 C 354.61 191.87 353.99 188.91 353.55 185.94 C 353.15 183.67 355.74 182.95 357.42 182.53 Z" />
<path fill="#ffffff" opacity="1.00" d=" M 336.23 190.19 C 338.70 189.67 338.93 192.79 339.37 194.47 C 339.62 196.84 341.22 199.49 339.84 201.74 C 338.00 202.71 335.19 204.62 333.51 202.53 C 332.58 199.40 331.72 196.20 331.51 192.94 C 332.05 190.85 334.47 190.66 336.23 190.19 Z" />
<path fill="#ffffff" opacity="1.00" d=" M 311.78 198.88 C 313.58 197.62 315.96 197.01 318.10 197.72 C 318.71 200.83 319.65 203.88 320.04 207.03 C 320.19 209.71 316.87 210.04 314.96 210.53 C 312.55 210.62 312.74 207.68 312.18 206.09 C 311.95 203.75 310.35 201.06 311.78 198.88 Z" />
<path fill="#000000" opacity="0.22" d=" M 497.35 237.99 C 486.80 239.35 482.65 220.98 492.91 217.84 C 490.17 220.50 488.34 224.27 489.13 228.16 C 489.64 232.76 493.08 236.46 497.35 237.99 Z" />
<path fill="#000000" opacity="0.22" d=" M 442.78 233.57 C 443.79 232.07 445.56 231.41 447.07 230.54 C 443.12 234.03 442.04 239.96 444.48 244.63 C 445.78 247.80 448.89 249.47 451.69 251.13 C 443.10 251.35 438.67 240.29 442.78 233.57 Z" />
</svg>
