<?xml version="1.0" encoding="UTF-8" ?>
<!DOCTYPE svg PUBLIC "-//W3C//DTD SVG 1.1//EN" "http://www.w3.org/Graphics/SVG/1.1/DTD/svg11.dtd">
<svg width="25pt" height="27pt" viewBox="0 0 25 27" version="1.1" xmlns="http://www.w3.org/2000/svg">
<g id="#ffffffff">
<path fill="#ffffff" opacity="1.00" d=" M 0.00 6.74 C 1.64 6.69 3.28 6.68 4.91 6.72 C 6.07 9.17 7.34 11.58 8.99 13.74 C 10.70 11.25 9.49 8.32 7.49 6.48 C 9.78 6.15 12.23 5.53 14.46 6.50 C 14.73 8.89 14.61 11.31 14.91 13.70 C 17.05 11.82 18.27 9.24 19.41 6.69 C 21.27 6.66 23.13 6.69 24.99 6.75 L 25.00 6.01 L 25.00 7.74 C 23.84 9.96 22.24 11.91 21.01 14.09 C 21.53 16.24 23.86 17.55 25.00 19.44 L 25.00 20.60 C 23.15 20.66 21.17 21.17 19.39 20.52 C 17.93 19.48 16.65 18.21 15.28 17.07 C 14.94 18.36 14.54 19.65 14.22 20.95 C 6.27 21.64 2.61 13.44 0.00 7.39 L 0.00 6.74 Z" />
</g>
</svg>
