<?xml version="1.0" encoding="UTF-8" ?>
<!DOCTYPE svg PUBLIC "-//W3C//DTD SVG 1.1//EN" "http://www.w3.org/Graphics/SVG/1.1/DTD/svg11.dtd">
<svg width="9pt" height="9pt" viewBox="0 0 400 400" version="1.1" xmlns="http://www.w3.org/2000/svg">
<g id="#000000ff">
<path fill="#777777" opacity="1.00" d=" M 40.53 21.59 C 43.76 19.24 48.38 20.12 50.93 23.06 C 98.25 70.42 145.60 117.73 192.92 165.08 C 195.48 167.54 197.69 170.50 200.87 172.21 C 203.59 170.19 205.82 167.61 208.21 165.23 C 253.55 119.90 298.88 74.56 344.22 29.22 C 347.13 26.46 349.62 23.03 353.33 21.29 C 356.47 19.87 359.87 21.70 362.10 23.91 C 366.66 28.35 371.02 32.98 375.62 37.37 C 378.00 39.73 380.94 42.33 380.75 46.01 C 380.91 48.60 379.12 50.69 377.46 52.45 C 329.22 100.54 281.14 148.80 232.91 196.90 C 231.69 198.16 230.54 199.50 229.63 201.00 C 230.42 202.30 231.39 203.48 232.43 204.59 C 279.61 251.73 326.74 298.93 373.94 346.06 C 376.56 348.84 380.01 351.27 381.07 355.13 C 381.79 358.38 379.48 361.19 377.35 363.35 C 373.01 367.67 368.61 371.95 364.36 376.36 C 362.24 378.43 360.04 380.85 356.97 381.33 C 354.17 381.78 351.64 380.12 349.71 378.29 C 308.90 337.44 268.05 296.62 227.22 255.78 C 218.35 247.18 209.98 238.03 200.83 229.73 C 199.77 230.33 198.80 231.09 197.90 231.91 C 148.96 280.96 99.89 329.90 50.94 378.94 C 49.07 380.69 46.75 382.46 44.03 382.18 C 40.96 381.79 38.74 379.40 36.64 377.36 C 32.22 372.78 27.65 368.35 23.15 363.84 C 20.90 361.61 18.78 358.44 19.89 355.13 C 21.20 351.39 24.58 348.98 27.21 346.21 C 73.07 300.40 118.88 254.55 164.72 208.72 C 167.20 206.21 169.94 203.91 171.96 200.98 C 170.23 198.44 167.90 196.41 165.73 194.27 C 118.52 147.14 71.44 99.89 24.18 52.81 C 21.46 50.24 18.45 46.40 20.41 42.50 C 22.62 38.22 26.72 35.39 29.92 31.91 C 33.51 28.53 36.65 24.65 40.53 21.59 Z" />
</g>
</svg>
